<?xml version="1.0" encoding="utf-8"?>
<!-- Generator: Adobe Illustrator 26.0.0, SVG Export Plug-In . SVG Version: 6.00 Build 0)  -->
<svg version="1.1" id="Capa_1" xmlns="http://www.w3.org/2000/svg" xmlns:xlink="http://www.w3.org/1999/xlink" x="0px" y="0px"
	 viewBox="0 0 500 500" style="enable-background:new 0 0 500 500;" xml:space="preserve">
<style type="text/css">
	.st0{fill:url(#SVGID_1_);}
	.st1{fill:url(#SVGID_00000102524966501921286230000008543690194892381119_);}
	.st2{fill:url(#SVGID_00000085246524240034377770000013619323456941886369_);}
	.st3{fill:url(#SVGID_00000091703393843070044010000015518449809822653118_);}
	.st4{fill:url(#SVGID_00000127028220607471109550000002098362315174255542_);}
	.st5{fill:url(#SVGID_00000076590583318999798140000003070801651176110510_);}
	.st6{fill:url(#SVGID_00000005976702299450430250000014410814527755500675_);}
	.st7{fill:url(#SVGID_00000156582841019829646490000010153191463793244045_);}
	.st8{fill:url(#SVGID_00000135676469941123296170000008475120352642212746_);}
	.st9{fill:url(#SVGID_00000172433932795178088970000006197195096034740896_);}
	.st10{fill:url(#SVGID_00000090267679665835327510000007022805797294563202_);}
	.st11{fill:url(#SVGID_00000049211463785109887280000016987576226642579589_);}
	.st12{fill:url(#SVGID_00000028300394954867591400000005673396060405408185_);}
	.st13{fill:url(#SVGID_00000165936612142533284610000006528401742070608315_);}
	.st14{fill:url(#SVGID_00000008859465867816908460000010717627864857350077_);}
	.st15{fill:url(#SVGID_00000048503150693620885500000008946066047063618213_);}
	.st16{fill:url(#SVGID_00000084501783634234843880000014540637485629371326_);}
	.st17{fill:url(#SVGID_00000036968232393331909640000014851893159809037698_);}
	.st18{fill:url(#SVGID_00000104704167229900057340000010027509482164067486_);}
	.st19{fill:#EE1D52;}
	.st20{fill:#FFFFFF;}
	.st21{fill:#69C9D0;}
</style>
<linearGradient id="SVGID_1_" gradientUnits="userSpaceOnUse" x1="-423.3907" y1="182.0878" x2="-184.1376" y2="421.3409">
	<stop  offset="0" style="stop-color:#33CCFF"/>
	<stop  offset="1" style="stop-color:#337FFF"/>
</linearGradient>
<path class="st0" d="M-145.56,250.5c12.04-19.93-12.12-48.83-34.46-34.47c-0.18,0.12-0.36,0.23-0.54,0.35
	c1.27-1.2,2.48-2.45,3.75-3.65c20.66-19.54-6.09-54.67-30.5-39.53c-15.29,9.48-30.38,19.29-45.38,29.23
	c12.36-11.99,24.85-23.85,37.61-35.42c21.8-19.78-5.98-52.61-30.5-39.53c-5.86,3.12-11.55,6.52-17.31,9.8
	c3.67-18.57-16.77-36.07-37.4-26.57c-55.51,25.55-106.48,59.6-151.99,100.35c-19.73,17.67,0.39,44.53,21.55,42.12
	c-15.21,18.23-29.99,36.81-44.02,56.01c-14.21,19.44,9.32,41.78,28.79,36.78c-4.4,5.83-8.85,11.62-13.17,17.52
	c-7.32,9.99-2.66,25.64,6.48,32.47c10.38,7.76,23.44,6.57,33.05-1.97c2.72-2.41,5.5-4.76,8.23-7.16
	c-4.53,5.31-9.21,10.49-13.7,15.83c-8.74,10.4-10.2,25.4,0,35.6c8.16,8.16,21.64,9.52,31.25,3.47c1.29,6.23,4.76,12.1,9.49,15.64
	c9.72,7.26,20.3,6.26,29.74,0.32c-0.74,18.39,19.8,37.37,37.36,24.06c10.33-7.83,20.66-15.66,30.99-23.49
	c6.93,13.16,25.02,20.45,39.72,7.11c22.94-20.81,47.36-39.42,73.47-56.08c13.36-8.53,14.05-23.34,8.09-34.18l25.34-28.04
	c8.37-9.26,9.99-22.98,1.97-33.05c-1.51-1.89-3.45-3.57-5.58-5.05c5.57-5.14,11.13-10.28,16.7-15.42
	C-108.86,277.23-125.38,249.76-145.56,250.5z M-217.07,246.81c0,0.41-0.01,1.42-0.85,2.56c-3.75,5.05-7.81,9.57-12.83,13.35
	c-0.73,0.55-1.95,1.12-1.95,2.16c0,26.51-6.77,52.99-26.1,72.19c-24.61,24.45-61.53,31.1-94.3,22.05
	c-6.35-1.75-12.42-4.21-18.24-7.3c-1.93-1.05-3.82-2.14-5.68-3.37c-0.47-0.38-0.82-0.73-0.42-0.98c0.4-0.2,0.71-0.22,2.17,0
	c9.17,0.9,18.61-0.46,27.28-3.49c4.77-1.67,15.01-5.02,17.96-9.52c0.07-0.1,0.14-0.1,0.21-0.21c-1.2-0.28-2.39-0.28-3.58-0.49
	c-8.9-2.55-20.8-7.01-26.3-22.03c-0.35-0.88,0-1.33,0.91-1.16c7.33,0.57,9.96,0.17,12.52-0.39c-1.44-0.24-2.91-0.74-4.24-1.3
	c-11.22-4.27-19.41-15.21-20.91-27.04c-0.17-1.37-0.28-2.53-0.21-3.79c0.07-0.88,0.46-1.16,1.23-0.67
	c5.77,2.98,12.24,3.69,12.76,3.58c-1.44-1.12-2.77-2.35-4.07-3.58c-9.73-9.21-13.5-27.96-5.72-39.63c0.63-0.95,1.05-0.95,1.82-0.07
	c17.79,20.27,39.71,29.74,66.15,33.67c0.7,0.1,0.77,0,0.66-0.77c-0.69-4.66-0.78-9.22,0.35-13.82c1.17-4.77,3.45-9.28,6.54-13.09
	c2.99-3.69,6.74-6.74,10.95-8.94c4.2-2.19,8.84-3.53,13.57-3.83c4.86-0.32,9.79,0.46,14.3,2.3c3.44,1.4,6.48,3.3,9.33,5.71
	c0.6,0.49,1.12,1.09,1.68,1.72c0.35,0.35,0.77,0.49,1.33,0.35c6.76-1.69,13.11-4.08,19.25-7.37c0.28-0.14,0.51-0.21,0.86-0.07
	c0.28,0.21,0.18,0.56,0.04,0.84c-1.1,3.59-3.04,6.91-5.39,9.83c-1.54,1.91-5.37,6.64-7.98,7.08c5.5-0.92,11.14-2.32,16.24-4.63
	c0.65-0.3,0.66-0.42,0.66,0C-217.07,246.67-217.07,246.74-217.07,246.81z"/>
<g>
	
		<linearGradient id="SVGID_00000102536698542190864950000014762153552683158946_" gradientUnits="userSpaceOnUse" x1="-397.0515" y1="742.8701" x2="-361.4195" y2="778.502">
		<stop  offset="0" style="stop-color:#FF0000"/>
		<stop  offset="1" style="stop-color:#850000"/>
	</linearGradient>
	<path style="fill:url(#SVGID_00000102536698542190864950000014762153552683158946_);" d="M-347.36,758.49l-38.8-21.11
		c-1.59-0.91-7.03,0.24-7.03,2.07v41.16c0,1.81,5.4,2.96,6.99,2.1l40.53-20.05C-344.03,761.77-345.74,759.42-347.36,758.49z"/>
	
		<linearGradient id="SVGID_00000118368501871506586020000001434525462794121635_" gradientUnits="userSpaceOnUse" x1="-495.6525" y1="646.1525" x2="-256.3991" y2="885.4059">
		<stop  offset="0" style="stop-color:#FF0000"/>
		<stop  offset="1" style="stop-color:#850000"/>
	</linearGradient>
	<path style="fill:url(#SVGID_00000118368501871506586020000001434525462794121635_);" d="M-217.82,714.56
		c12.04-19.93-12.12-48.83-34.46-34.47c-0.18,0.12-0.36,0.23-0.54,0.35c1.27-1.2,2.48-2.45,3.75-3.65
		c20.66-19.54-6.09-54.67-30.5-39.53c-15.3,9.48-30.38,19.29-45.38,29.23c12.36-11.99,24.85-23.85,37.61-35.42
		c21.8-19.78-5.98-52.61-30.5-39.53c-5.86,3.12-11.55,6.52-17.31,9.8c3.67-18.57-16.77-36.07-37.4-26.57
		c-55.51,25.55-106.48,59.6-151.99,100.35c-19.73,17.67,0.39,44.53,21.55,42.12c-15.21,18.23-29.99,36.81-44.02,56.02
		c-14.21,19.44,9.32,41.77,28.79,36.78c-4.4,5.83-8.85,11.62-13.17,17.52c-7.32,9.99-2.66,25.64,6.48,32.47
		c10.38,7.76,23.44,6.57,33.05-1.97c2.72-2.42,5.5-4.76,8.23-7.16c-4.53,5.31-9.21,10.49-13.7,15.83c-8.74,10.4-10.2,25.4,0,35.6
		c8.16,8.16,21.64,9.52,31.25,3.47c1.29,6.23,4.76,12.1,9.49,15.64c9.72,7.26,20.3,6.26,29.74,0.32
		c-0.74,18.39,19.8,37.37,37.36,24.06c10.33-7.83,20.66-15.66,30.99-23.49c6.93,13.16,25.02,20.45,39.71,7.11
		c22.94-20.81,47.36-39.42,73.47-56.08c13.36-8.53,14.05-23.34,8.09-34.18l25.34-28.04c8.37-9.26,9.99-22.98,1.97-33.05
		c-1.51-1.89-3.45-3.58-5.58-5.05c5.57-5.14,11.13-10.28,16.7-15.42C-181.13,741.3-197.64,713.82-217.82,714.56z M-292.52,780.54
		c0,19.52-15.83,35.35-35.35,35.35h-90.39c-19.52,0-35.35-15.83-35.35-35.35v-42.06c0-19.52,15.83-35.35,35.35-35.35h90.39
		c19.52,0,35.35,15.83,35.35,35.35V780.54z"/>
</g>
<g>
	
		<linearGradient id="SVGID_00000144328426052719347500000010364391513509925033_" gradientUnits="userSpaceOnUse" x1="-625.7152" y1="-47.2627" x2="-587.226" y2="-8.7734">
		<stop  offset="1.104800e-03" style="stop-color:#FBE18A"/>
		<stop  offset="0.2094" style="stop-color:#FCBB45"/>
		<stop  offset="0.3765" style="stop-color:#F75274"/>
		<stop  offset="0.5238" style="stop-color:#D53692"/>
		<stop  offset="0.7394" style="stop-color:#8F39CE"/>
		<stop  offset="1" style="stop-color:#5B4FE9"/>
	</linearGradient>
	<path style="fill:url(#SVGID_00000144328426052719347500000010364391513509925033_);" d="M-606.47-55.25
		c-15.01,0-27.23,12.21-27.23,27.23c0,15.01,12.21,27.23,27.23,27.23c15.01,0,27.23-12.21,27.23-27.23
		C-579.24-43.03-591.46-55.25-606.47-55.25z"/>
	
		<linearGradient id="SVGID_00000163063344017231588440000012906274112497167285_" gradientUnits="userSpaceOnUse" x1="-666.8032" y1="-87.6412" x2="-547.5563" y2="31.6056">
		<stop  offset="1.104800e-03" style="stop-color:#FBE18A"/>
		<stop  offset="0.2094" style="stop-color:#FCBB45"/>
		<stop  offset="0.3765" style="stop-color:#F75274"/>
		<stop  offset="0.5238" style="stop-color:#D53692"/>
		<stop  offset="0.7394" style="stop-color:#8F39CE"/>
		<stop  offset="1" style="stop-color:#5B4FE9"/>
	</linearGradient>
	<path style="fill:url(#SVGID_00000163063344017231588440000012906274112497167285_);" d="M-572.72-98.08h-68.91
		c-19.63,0-35.61,15.97-35.61,35.61V6.44c0,19.64,15.97,35.61,35.61,35.61h68.91c19.64,0,35.61-15.97,35.61-35.61v-68.91
		C-537.12-82.11-553.09-98.08-572.72-98.08z M-606.47,14.49c-23.44,0-42.51-19.07-42.51-42.51c0-23.44,19.07-42.51,42.51-42.51
		c23.44,0,42.51,19.07,42.51,42.51C-563.96-4.58-583.03,14.49-606.47,14.49z M-561.48-63.26c-5.59,0-10.12-4.53-10.12-10.12
		c0-5.59,4.53-10.12,10.12-10.12c5.59,0,10.12,4.53,10.12,10.12C-551.36-67.79-555.89-63.26-561.48-63.26z"/>
	
		<linearGradient id="SVGID_00000016043030834959285410000014059816198290441623_" gradientUnits="userSpaceOnUse" x1="-731.5017" y1="-142.8388" x2="-492.2484" y2="96.4145">
		<stop  offset="1.104800e-03" style="stop-color:#FBE18A"/>
		<stop  offset="0.2094" style="stop-color:#FCBB45"/>
		<stop  offset="0.3765" style="stop-color:#F75274"/>
		<stop  offset="0.5238" style="stop-color:#D53692"/>
		<stop  offset="0.7394" style="stop-color:#8F39CE"/>
		<stop  offset="1" style="stop-color:#5B4FE9"/>
	</linearGradient>
	<path style="fill:url(#SVGID_00000016043030834959285410000014059816198290441623_);" d="M-453.67-74.43
		c12.04-19.93-12.12-48.83-34.46-34.47c-0.18,0.12-0.36,0.23-0.54,0.35c1.27-1.2,2.48-2.45,3.75-3.65
		c20.66-19.54-6.09-54.67-30.5-39.53c-15.3,9.48-30.38,19.29-45.38,29.23c12.36-11.99,24.85-23.85,37.61-35.42
		c21.8-19.78-5.98-52.61-30.5-39.53c-5.86,3.12-11.55,6.52-17.31,9.8c3.67-18.57-16.77-36.07-37.4-26.57
		c-55.51,25.55-106.48,59.6-151.99,100.35c-19.73,17.67,0.39,44.53,21.55,42.12c-15.21,18.23-29.99,36.81-44.02,56.01
		c-14.21,19.44,9.32,41.78,28.79,36.78c-4.4,5.83-8.85,11.62-13.17,17.52c-7.32,9.99-2.66,25.64,6.48,32.47
		c10.38,7.76,23.44,6.57,33.05-1.97c2.72-2.41,5.5-4.76,8.23-7.16c-4.53,5.31-9.21,10.49-13.7,15.83c-8.74,10.4-10.2,25.4,0,35.6
		c8.16,8.16,21.64,9.52,31.25,3.47c1.29,6.23,4.76,12.1,9.49,15.64c9.72,7.26,20.3,6.26,29.74,0.32
		c-0.74,18.39,19.8,37.37,37.36,24.06c10.33-7.83,20.66-15.66,30.99-23.49c6.93,13.16,25.02,20.45,39.71,7.11
		c22.94-20.81,47.36-39.42,73.47-56.08c13.36-8.53,14.05-23.34,8.09-34.18l25.34-28.04c8.37-9.26,9.99-22.98,1.97-33.05
		c-1.51-1.89-3.45-3.57-5.58-5.05c5.57-5.14,11.13-10.28,16.7-15.42C-416.97-47.69-433.49-75.17-453.67-74.43z M-520.88,6.44
		c0,28.59-23.26,51.85-51.85,51.85h-68.91c-28.59,0-51.84-23.26-51.84-51.85v-68.91c0-28.59,23.26-51.85,51.84-51.85h68.91
		c28.59,0,51.85,23.26,51.85,51.85V6.44z"/>
</g>
<g>
	
		<linearGradient id="SVGID_00000100355679513512337090000003432618162911335339_" gradientUnits="userSpaceOnUse" x1="1455.9596" y1="491.5934" x2="1695.2125" y2="730.8463">
		<stop  offset="0" style="stop-color:#22004A"/>
		<stop  offset="0.9565" style="stop-color:#020003"/>
		<stop  offset="1" style="stop-color:#000000"/>
	</linearGradient>
	<path style="fill:url(#SVGID_00000100355679513512337090000003432618162911335339_);" d="M1615.85,650.75
		c-0.18,0.31-0.36,0.62-0.55,0.92C1615.49,651.36,1615.67,651.05,1615.85,650.75z"/>
	
		<linearGradient id="SVGID_00000131332831058354850460000014352839081970939037_" gradientUnits="userSpaceOnUse" x1="1530.9413" y1="416.6112" x2="1770.1946" y2="655.8645">
		<stop  offset="0" style="stop-color:#22004A"/>
		<stop  offset="0.9565" style="stop-color:#020003"/>
		<stop  offset="1" style="stop-color:#000000"/>
	</linearGradient>
	<path style="fill:url(#SVGID_00000131332831058354850460000014352839081970939037_);" d="M1663.18,548.17
		c-0.7-0.21-1.38-0.46-2.07-0.7C1661.8,547.71,1662.48,547.96,1663.18,548.17z"/>
	
		<linearGradient id="SVGID_00000174594768170148411500000012678748875971356596_" gradientUnits="userSpaceOnUse" x1="1468.6487" y1="478.9039" x2="1707.9019" y2="718.1571">
		<stop  offset="0" style="stop-color:#22004A"/>
		<stop  offset="0.9565" style="stop-color:#020003"/>
		<stop  offset="1" style="stop-color:#000000"/>
	</linearGradient>
	<polygon style="fill:url(#SVGID_00000174594768170148411500000012678748875971356596_);" points="1574.77,597.22 1574.77,597.22 
		1574.77,572.83 1574.77,572.83 	"/>
	
		<linearGradient id="SVGID_00000164505593295684404080000013046365039754715303_" gradientUnits="userSpaceOnUse" x1="1461.3027" y1="486.2498" x2="1700.556" y2="725.5031">
		<stop  offset="0" style="stop-color:#22004A"/>
		<stop  offset="0.9565" style="stop-color:#020003"/>
		<stop  offset="1" style="stop-color:#000000"/>
	</linearGradient>
	<path style="fill:url(#SVGID_00000164505593295684404080000013046365039754715303_);" d="M1570.91,596.32
		c0.38,0.06,0.76,0.14,1.14,0.22C1571.67,596.46,1571.29,596.38,1570.91,596.32z"/>
	
		<linearGradient id="SVGID_00000085215487998561897890000014826470986690846869_" gradientUnits="userSpaceOnUse" x1="1529.9912" y1="417.5613" x2="1769.2445" y2="656.8146">
		<stop  offset="0" style="stop-color:#22004A"/>
		<stop  offset="0.9565" style="stop-color:#020003"/>
		<stop  offset="1" style="stop-color:#000000"/>
	</linearGradient>
	<path style="fill:url(#SVGID_00000085215487998561897890000014826470986690846869_);" d="M1660.02,547.09
		c-0.59-0.22-1.15-0.49-1.73-0.74C1658.86,546.6,1659.43,546.87,1660.02,547.09z"/>
	
		<linearGradient id="SVGID_00000027578891102162527020000008497227138339596967_" gradientUnits="userSpaceOnUse" x1="1462.1575" y1="485.3951" x2="1701.4108" y2="724.6483">
		<stop  offset="0" style="stop-color:#22004A"/>
		<stop  offset="0.9565" style="stop-color:#020003"/>
		<stop  offset="1" style="stop-color:#000000"/>
	</linearGradient>
	<path style="fill:url(#SVGID_00000027578891102162527020000008497227138339596967_);" d="M1572.86,596.7
		c0.56,0.13,1.11,0.29,1.66,0.46C1573.97,596.98,1573.42,596.83,1572.86,596.7z"/>
	
		<linearGradient id="SVGID_00000034801786458867793000000015527032540829679527_" gradientUnits="userSpaceOnUse" x1="1528.1194" y1="419.4332" x2="1767.3727" y2="658.6864">
		<stop  offset="0" style="stop-color:#22004A"/>
		<stop  offset="0.9565" style="stop-color:#020003"/>
		<stop  offset="1" style="stop-color:#000000"/>
	</linearGradient>
	<path style="fill:url(#SVGID_00000034801786458867793000000015527032540829679527_);" d="M1651.18,542.45
		c-0.1-0.07-0.2-0.15-0.3-0.22C1650.98,542.3,1651.08,542.38,1651.18,542.45z"/>
	
		<linearGradient id="SVGID_00000152976443094293038150000016399340121518625699_" gradientUnits="userSpaceOnUse" x1="1444.7828" y1="502.7695" x2="1684.0363" y2="742.0229">
		<stop  offset="0" style="stop-color:#22004A"/>
		<stop  offset="0.9565" style="stop-color:#020003"/>
		<stop  offset="1" style="stop-color:#000000"/>
	</linearGradient>
	<path style="fill:url(#SVGID_00000152976443094293038150000016399340121518625699_);" d="M1575.87,655.31
		c11.61,0,21.44-7.63,24.75-18.15C1597.32,647.68,1587.49,655.31,1575.87,655.31z"/>
	
		<linearGradient id="SVGID_00000140011251282220057270000000487302345976470941_" gradientUnits="userSpaceOnUse" x1="1468.6567" y1="478.8958" x2="1707.9099" y2="718.149">
		<stop  offset="0" style="stop-color:#22004A"/>
		<stop  offset="0.9565" style="stop-color:#020003"/>
		<stop  offset="1" style="stop-color:#000000"/>
	</linearGradient>
	<path style="fill:url(#SVGID_00000140011251282220057270000000487302345976470941_);" d="M1746.49,547.3
		c12.04-19.93-12.12-48.83-34.46-34.47c-0.18,0.12-0.36,0.23-0.54,0.35c1.27-1.2,2.48-2.45,3.75-3.65
		c20.66-19.54-6.09-54.67-30.5-39.53c-15.29,9.48-30.38,19.29-45.38,29.23c12.36-11.99,24.85-23.85,37.61-35.42
		c21.8-19.78-5.98-52.61-30.5-39.53c-5.86,3.12-11.55,6.52-17.31,9.8c3.67-18.57-16.77-36.07-37.4-26.57
		c-55.51,25.55-106.48,59.6-151.99,100.35c-19.73,17.67,0.39,44.53,21.55,42.12c-15.21,18.23-29.99,36.81-44.02,56.01
		c-14.21,19.44,9.32,41.78,28.79,36.78c-4.4,5.83-8.85,11.62-13.17,17.52c-7.32,9.99-2.66,25.64,6.48,32.47
		c10.38,7.76,23.44,6.57,33.05-1.97c2.72-2.41,5.5-4.76,8.23-7.16c-4.53,5.31-9.21,10.49-13.7,15.83c-8.74,10.4-10.2,25.4,0,35.6
		c8.16,8.16,21.64,9.52,31.25,3.47c1.29,6.23,4.76,12.1,9.49,15.64c9.72,7.26,20.3,6.26,29.74,0.32
		c-0.74,18.39,19.8,37.37,37.36,24.06c10.33-7.83,20.66-15.66,30.99-23.49c6.93,13.16,25.02,20.45,39.72,7.11
		c22.94-20.81,47.36-39.42,73.47-56.08c13.36-8.53,14.05-23.34,8.09-34.18l25.34-28.04c8.37-9.26,9.99-22.98,1.97-33.05
		c-1.51-1.89-3.45-3.57-5.58-5.05c5.57-5.14,11.13-10.28,16.7-15.42C1783.18,574.04,1766.67,546.57,1746.49,547.3z M1675.4,580.59
		c-15.94,0-30.7-5.06-42.74-13.67v62.56c0,31.3-25.38,56.66-56.7,56.66c-15.88,0-30.24-6.53-40.53-17.05c0,0,0,0,0,0c0,0,0,0,0-0.01
		c-15.16-10.17-25.13-27.46-25.13-47.08c0-31.29,25.38-56.66,56.7-56.66c2.6,0,5.2,0.17,7.78,0.53v6.95c3-0.06,6,0.11,8.97,0.52
		v31.34c-2.54-0.81-5.2-1.22-7.87-1.21c-14.32,0-25.93,11.6-25.93,25.92c-0.01,5.67,1.85,11.18,5.29,15.69
		c-8.46-4.27-14.26-13.03-14.26-23.15c0-14.31,11.61-25.92,25.93-25.92c0,0,0,0,0,0c-14.32,0-25.93,11.6-25.93,25.92
		c0,10.12,5.8,18.88,14.26,23.15c3.51,1.77,7.47,2.76,11.67,2.76c14.29,0,25.88-11.56,25.93-25.83V499.57h30.85v3.94
		c0.11,1.18,0.27,2.35,0.47,3.52h8.51v3.94c0.87,9.6,4.92,18.29,11.07,25.02c0.43,0.46,0.88,0.9,1.33,1.34
		c-0.44-0.45-0.9-0.88-1.33-1.34c6.81,4.25,14.67,6.49,22.69,6.48V549c2.95,0.63,5.96,0.94,8.98,0.94V580.59z"/>
	
		<linearGradient id="SVGID_00000172440263215220237650000002963747929354088834_" gradientUnits="userSpaceOnUse" x1="1460.3285" y1="487.224" x2="1699.5818" y2="726.4773">
		<stop  offset="0" style="stop-color:#22004A"/>
		<stop  offset="0.9565" style="stop-color:#020003"/>
		<stop  offset="1" style="stop-color:#000000"/>
	</linearGradient>
	<path style="fill:url(#SVGID_00000172440263215220237650000002963747929354088834_);" d="M1568.92,596.09
		c0.2,0.02,0.4,0.05,0.6,0.07C1569.32,596.13,1569.13,596.1,1568.92,596.09z"/>
	
		<linearGradient id="SVGID_00000055698044582338199310000001535420529645734272_" gradientUnits="userSpaceOnUse" x1="1629.5579" y1="563.8179" x2="1635.7595" y2="570.0196">
		<stop  offset="0" style="stop-color:#22004A"/>
		<stop  offset="0.9565" style="stop-color:#020003"/>
		<stop  offset="1" style="stop-color:#000000"/>
	</linearGradient>
	<polygon style="fill:url(#SVGID_00000055698044582338199310000001535420529645734272_);" points="1632.66,566.92 1632.66,566.92 
		1632.66,566.92 	"/>
	
		<linearGradient id="SVGID_00000067209636440035166100000011385150059611906989_" gradientUnits="userSpaceOnUse" x1="1529.2117" y1="418.341" x2="1768.4648" y2="657.5942">
		<stop  offset="0" style="stop-color:#22004A"/>
		<stop  offset="0.9565" style="stop-color:#020003"/>
		<stop  offset="1" style="stop-color:#000000"/>
	</linearGradient>
	<path style="fill:url(#SVGID_00000067209636440035166100000011385150059611906989_);" d="M1656.95,545.78
		c-0.43-0.21-0.85-0.45-1.27-0.67C1656.1,545.33,1656.52,545.57,1656.95,545.78z"/>
	
		<linearGradient id="SVGID_00000133495232723782072410000006839784491451687580_" gradientUnits="userSpaceOnUse" x1="1528.589" y1="418.9636" x2="1767.8423" y2="658.2169">
		<stop  offset="0" style="stop-color:#22004A"/>
		<stop  offset="0.9565" style="stop-color:#020003"/>
		<stop  offset="1" style="stop-color:#000000"/>
	</linearGradient>
	<path style="fill:url(#SVGID_00000133495232723782072410000006839784491451687580_);" d="M1654,544.22
		c-0.27-0.15-0.52-0.33-0.78-0.49C1653.48,543.9,1653.73,544.07,1654,544.22z"/>
	<path class="st19" d="M1574.77,597.22L1574.77,597.22c-0.08-0.03-0.17-0.04-0.25-0.07c-0.55-0.17-1.1-0.33-1.66-0.46
		c-0.27-0.06-0.54-0.1-0.81-0.16c-0.38-0.08-0.76-0.16-1.14-0.22c-0.46-0.07-0.92-0.11-1.38-0.16c-0.2-0.02-0.4-0.05-0.6-0.07
		c-0.67-0.05-1.34-0.08-2.03-0.08c-14.32,0-25.93,11.6-25.93,25.92c0,10.12,5.8,18.88,14.26,23.15c-3.44-4.51-5.3-10.02-5.29-15.69
		c0-14.31,11.61-25.92,25.93-25.92c2.67,0,5.32,0.41,7.87,1.21v-31.34c-2.97-0.41-5.97-0.58-8.97-0.52L1574.77,597.22
		C1574.77,597.22,1574.77,597.22,1574.77,597.22z"/>
	<path class="st19" d="M1666.43,573.13c-15.94,0-30.69-5.06-42.74-13.67v62.56v0c0,10.49-2.86,20.31-7.83,28.73
		c-0.18,0.31-0.36,0.62-0.55,0.92c-9.98,16.2-27.88,27.01-48.31,27.01c-11.68,0-22.54-3.53-31.56-9.58
		c10.29,10.52,24.65,17.05,40.53,17.05c31.31,0,56.7-25.37,56.7-56.66v-62.56c0,0,0,0,0,0h0v0c12.05,8.61,26.8,13.67,42.74,13.67
		v-30.66c-3.02,0-6.02-0.31-8.98-0.94V573.13z"/>
	<path class="st19" d="M1643.73,535.99c-6.16-6.72-10.2-15.41-11.07-25.02v-3.94h-8.51C1626.29,519.24,1633.6,529.67,1643.73,535.99
		z"/>
	<path class="st20" d="M1623.68,622.02L1623.68,622.02c0,10.49-2.86,20.31-7.83,28.73C1620.82,642.32,1623.68,632.5,1623.68,622.02z
		"/>
	<path class="st20" d="M1574.77,597.22c-0.08-0.03-0.17-0.04-0.25-0.07C1574.6,597.18,1574.69,597.19,1574.77,597.22L1574.77,597.22
		z"/>
	<path class="st20" d="M1615.3,651.67c-9.98,16.2-27.88,27.01-48.31,27.01c-11.68,0-22.54-3.53-31.56-9.58c0,0,0,0,0,0
		c9.02,6.05,19.88,9.58,31.56,9.58C1587.42,678.68,1605.32,667.87,1615.3,651.67z"/>
	<path class="st20" d="M1572.05,596.54c0.27,0.05,0.54,0.1,0.81,0.16C1572.59,596.63,1572.32,596.59,1572.05,596.54z"/>
	<path class="st20" d="M1566.9,596.01C1566.9,596.01,1566.9,596.01,1566.9,596.01c0.68,0,1.36,0.03,2.03,0.08
		C1568.25,596.03,1567.58,596.01,1566.9,596.01z"/>
	<path class="st20" d="M1569.53,596.15c0.46,0.05,0.93,0.09,1.38,0.16C1570.45,596.24,1569.99,596.2,1569.53,596.15z"/>
	<path class="st21" d="M1650.88,542.23c0.1,0.07,0.2,0.15,0.3,0.22c0.66,0.45,1.35,0.87,2.04,1.28c0.26,0.16,0.51,0.33,0.78,0.49
		c0.55,0.32,1.12,0.59,1.68,0.89c0.43,0.22,0.84,0.46,1.27,0.67c0.44,0.21,0.89,0.38,1.34,0.58c0.58,0.25,1.14,0.52,1.73,0.74
		c0.36,0.14,0.73,0.25,1.1,0.37c0.69,0.24,1.37,0.49,2.07,0.7c1.06,0.32,2.15,0.59,3.24,0.83v-6.53
		c-8.02,0.01-15.89-2.23-22.69-6.48c0.43,0.47,0.88,0.9,1.33,1.34C1646.85,539.13,1648.79,540.78,1650.88,542.23z"/>
	<path class="st21" d="M1574.77,572.83L1574.77,572.83C1574.77,572.83,1574.77,572.83,1574.77,572.83l0-6.95
		c-2.58-0.35-5.18-0.53-7.78-0.53c-31.31,0-56.7,25.37-56.7,56.66c0,19.62,9.97,36.91,25.13,47.08
		c-10-10.21-16.15-24.19-16.15-39.61C1519.27,598.58,1544.01,573.46,1574.77,572.83z"/>
	<path class="st21" d="M1575.87,655.31c11.61,0,21.44-7.63,24.75-18.15c0.76-2.43,1.18-5.01,1.19-7.68V507.03h22.34
		c-0.2-1.17-0.36-2.34-0.47-3.52v-3.94h-30.85v122.44c-0.05,14.27-11.64,25.83-25.93,25.83c-4.2,0-8.16-0.99-11.67-2.76
		C1559.97,651.3,1567.45,655.31,1575.87,655.31z"/>
	<path class="st21" d="M1666.43,549c-1.1-0.23-2.18-0.51-3.24-0.83C1664.25,548.49,1665.33,548.76,1666.43,549z"/>
	<path class="st21" d="M1519.27,629.48c0-30.89,24.74-56.01,55.5-56.65l0,0C1544.01,573.46,1519.27,598.58,1519.27,629.48
		c0,15.42,6.16,29.4,16.15,39.61c0,0,0,0,0.01,0C1525.43,658.88,1519.27,644.9,1519.27,629.48z"/>
	<path class="st21" d="M1658.29,546.35c-0.45-0.19-0.9-0.37-1.34-0.58C1657.39,545.99,1657.84,546.16,1658.29,546.35z"/>
	<path class="st21" d="M1653.22,543.74c-0.69-0.42-1.38-0.83-2.04-1.28C1651.84,542.91,1652.53,543.32,1653.22,543.74z"/>
	<path class="st21" d="M1655.68,545.11c-0.56-0.29-1.13-0.57-1.68-0.89C1654.54,544.54,1655.11,544.82,1655.68,545.11z"/>
	<path class="st21" d="M1661.11,547.47c-0.36-0.13-0.74-0.24-1.1-0.37C1660.38,547.23,1660.75,547.34,1661.11,547.47z"/>
	<path class="st21" d="M1650.88,542.23c-2.09-1.46-4.03-3.1-5.82-4.9C1646.86,539.14,1648.8,540.79,1650.88,542.23z"/>
</g>
<path class="st20" d="M624.11-350.03c12.04-19.93-12.12-48.83-34.46-34.47c-0.18,0.12-0.36,0.23-0.54,0.35
	c1.27-1.2,2.48-2.45,3.75-3.65c20.66-19.54-6.09-54.67-30.5-39.53c-15.3,9.48-30.38,19.29-45.38,29.23
	c12.36-11.99,24.85-23.85,37.61-35.42c21.8-19.78-5.98-52.61-30.5-39.53c-5.86,3.12-11.55,6.52-17.31,9.8
	c3.67-18.57-16.77-36.07-37.4-26.57c-55.51,25.55-106.48,59.6-151.99,100.35c-19.73,17.67,0.39,44.53,21.55,42.12
	c-15.21,18.23-29.99,36.81-44.02,56.01c-14.21,19.44,9.32,41.78,28.8,36.78c-4.4,5.83-8.85,11.62-13.17,17.52
	c-7.32,9.99-2.66,25.64,6.48,32.47c10.38,7.76,23.44,6.57,33.05-1.97c2.72-2.41,5.5-4.76,8.23-7.16
	c-4.53,5.31-9.21,10.49-13.7,15.83c-8.74,10.4-10.2,25.4,0,35.6c8.16,8.16,21.64,9.52,31.25,3.47c1.29,6.23,4.76,12.1,9.49,15.64
	c9.72,7.26,20.3,6.26,29.74,0.32c-0.74,18.39,19.8,37.37,37.36,24.06c10.33-7.83,20.66-15.66,30.99-23.49
	c6.93,13.16,25.02,20.45,39.72,7.11c22.94-20.81,47.36-39.42,73.47-56.08c13.36-8.53,14.05-23.34,8.09-34.18l25.34-28.04
	c8.37-9.26,9.99-22.98,1.97-33.05c-1.51-1.89-3.45-3.57-5.58-5.05c5.57-5.14,11.13-10.28,16.7-15.42
	C660.8-323.29,644.29-350.76,624.11-350.03z M552.59-353.71c0,0.41-0.01,1.42-0.85,2.56c-3.75,5.05-7.81,9.57-12.83,13.35
	c-0.73,0.55-1.95,1.12-1.95,2.16c0,26.51-6.77,52.99-26.1,72.19c-24.61,24.45-61.53,31.1-94.3,22.05
	c-6.35-1.75-12.42-4.21-18.24-7.3c-1.93-1.05-3.82-2.14-5.68-3.37c-0.47-0.38-0.82-0.73-0.42-0.98c0.4-0.2,0.71-0.22,2.17,0
	c9.17,0.9,18.61-0.46,27.28-3.49c4.77-1.67,15.01-5.02,17.96-9.52c0.07-0.1,0.14-0.1,0.21-0.21c-1.2-0.28-2.39-0.28-3.58-0.49
	c-8.9-2.55-20.8-7.01-26.3-22.03c-0.35-0.88,0-1.33,0.91-1.16c7.33,0.57,9.96,0.17,12.52-0.39c-1.44-0.24-2.91-0.74-4.24-1.3
	c-11.22-4.27-19.41-15.21-20.91-27.04c-0.17-1.37-0.28-2.53-0.21-3.79c0.07-0.88,0.46-1.16,1.23-0.67
	c5.77,2.98,12.24,3.68,12.76,3.58c-1.44-1.12-2.77-2.35-4.07-3.58c-9.73-9.21-13.5-27.96-5.72-39.63c0.63-0.95,1.05-0.95,1.82-0.07
	c17.79,20.27,39.71,29.74,66.15,33.67c0.7,0.1,0.77,0,0.66-0.77c-0.69-4.66-0.78-9.22,0.35-13.82c1.17-4.77,3.45-9.28,6.54-13.09
	c2.99-3.69,6.74-6.74,10.95-8.94c4.2-2.19,8.84-3.53,13.57-3.83c4.86-0.32,9.79,0.46,14.3,2.3c3.44,1.4,6.48,3.3,9.33,5.71
	c0.6,0.49,1.12,1.09,1.68,1.72c0.35,0.35,0.77,0.49,1.33,0.35c6.76-1.69,13.11-4.08,19.25-7.37c0.28-0.14,0.51-0.21,0.86-0.07
	c0.28,0.21,0.18,0.56,0.04,0.84c-1.1,3.59-3.04,6.91-5.39,9.83c-1.54,1.91-5.37,6.64-7.98,7.08c5.5-0.92,11.14-2.32,16.24-4.63
	c0.65-0.3,0.66-0.42,0.66,0C552.59-353.85,552.59-353.78,552.59-353.71z"/>
<g>
	<path class="st20" d="M1080.95,58.23l-38.8-21.11c-1.59-0.91-7.03,0.24-7.03,2.07v41.16c0,1.81,5.4,2.96,6.99,2.1l40.53-20.05
		C1084.28,61.51,1082.58,59.15,1080.95,58.23z"/>
	<path class="st20" d="M1210.49,14.29c12.04-19.93-12.12-48.83-34.46-34.47c-0.18,0.12-0.36,0.23-0.54,0.35
		c1.27-1.2,2.48-2.45,3.75-3.65c20.65-19.54-6.09-54.67-30.5-39.53c-15.3,9.48-30.38,19.29-45.38,29.23
		c12.36-11.99,24.85-23.85,37.61-35.42c21.8-19.78-5.98-52.61-30.5-39.53c-5.86,3.12-11.55,6.52-17.31,9.8
		c3.67-18.57-16.77-36.07-37.4-26.57c-55.51,25.55-106.48,59.6-151.99,100.35c-19.73,17.67,0.39,44.53,21.55,42.12
		c-15.21,18.23-29.99,36.81-44.02,56.02c-14.21,19.44,9.32,41.77,28.79,36.78c-4.4,5.83-8.85,11.62-13.17,17.52
		c-7.32,9.99-2.66,25.64,6.48,32.47c10.38,7.76,23.44,6.57,33.05-1.97c2.72-2.42,5.5-4.76,8.23-7.16
		c-4.53,5.31-9.21,10.49-13.7,15.83c-8.74,10.4-10.2,25.4,0,35.6c8.16,8.16,21.64,9.52,31.25,3.47c1.29,6.23,4.76,12.1,9.49,15.64
		c9.72,7.26,20.3,6.26,29.74,0.32c-0.74,18.39,19.8,37.37,37.36,24.06c10.33-7.83,20.66-15.66,30.99-23.49
		c6.93,13.16,25.02,20.45,39.72,7.11c22.94-20.81,47.36-39.42,73.47-56.08c13.36-8.53,14.05-23.34,8.09-34.18l25.34-28.04
		c8.37-9.26,9.99-22.98,1.97-33.05c-1.51-1.89-3.45-3.58-5.58-5.05c5.57-5.14,11.13-10.28,16.7-15.42
		C1247.19,41.03,1230.67,13.56,1210.49,14.29z M1135.8,80.28c0,19.52-15.83,35.35-35.35,35.35h-90.39
		c-19.52,0-35.35-15.83-35.35-35.35V38.21c0-19.52,15.83-35.35,35.35-35.35h90.39c19.52,0,35.35,15.83,35.35,35.35V80.28z"/>
</g>
<g>
	<path class="st20" d="M284.45,179.73h-68.91c-19.63,0-35.61,15.97-35.61,35.61v68.91c0,19.63,15.97,35.61,35.61,35.61h68.91
		c19.63,0,35.61-15.97,35.61-35.61v-68.91C320.06,195.7,304.09,179.73,284.45,179.73z M250.71,292.3
		c-23.44,0-42.51-19.07-42.51-42.51c0-23.44,19.07-42.51,42.51-42.51c23.44,0,42.51,19.07,42.51,42.51
		C293.22,273.23,274.15,292.3,250.71,292.3z M295.7,214.55c-5.59,0-10.12-4.53-10.12-10.12c0-5.59,4.53-10.12,10.12-10.12
		c5.59,0,10.12,4.53,10.12,10.12C305.81,210.02,301.28,214.55,295.7,214.55z"/>
	<path class="st20" d="M403.51,203.38c12.04-19.93-12.12-48.83-34.46-34.47c-0.18,0.12-0.36,0.23-0.54,0.35
		c1.27-1.2,2.48-2.45,3.75-3.65c20.65-19.54-6.09-54.67-30.5-39.53c-15.3,9.48-30.38,19.29-45.38,29.23
		c12.36-11.99,24.85-23.85,37.61-35.42c21.8-19.78-5.98-52.61-30.5-39.53c-5.86,3.12-11.55,6.52-17.31,9.8
		c3.67-18.57-16.77-36.07-37.4-26.57c-55.51,25.55-106.48,59.6-151.99,100.35c-19.73,17.67,0.39,44.53,21.55,42.12
		c-15.21,18.23-29.99,36.81-44.02,56.01c-14.21,19.44,9.32,41.78,28.79,36.78c-4.4,5.83-8.85,11.62-13.17,17.52
		c-7.32,9.99-2.66,25.64,6.48,32.47c10.38,7.76,23.44,6.57,33.05-1.97c2.72-2.41,5.5-4.76,8.23-7.16
		c-4.53,5.31-9.21,10.49-13.7,15.83c-8.74,10.4-10.2,25.4,0,35.6c8.16,8.16,21.64,9.52,31.25,3.47c1.29,6.23,4.76,12.1,9.49,15.64
		c9.72,7.26,20.3,6.26,29.74,0.32c-0.74,18.39,19.8,37.37,37.36,24.06c10.33-7.83,20.66-15.66,30.99-23.49
		c6.93,13.16,25.02,20.45,39.71,7.11c22.94-20.81,47.36-39.42,73.47-56.08c13.36-8.53,14.05-23.34,8.09-34.18l25.34-28.04
		c8.37-9.26,9.99-22.98,1.97-33.05c-1.51-1.89-3.45-3.57-5.58-5.05c5.57-5.14,11.13-10.28,16.7-15.42
		C440.2,230.12,423.69,202.64,403.51,203.38z M336.3,284.25c0,28.59-23.26,51.84-51.85,51.84h-68.91
		c-28.59,0-51.85-23.26-51.85-51.84v-68.91c0-28.59,23.26-51.85,51.85-51.85h68.91c28.59,0,51.85,23.26,51.85,51.85V284.25z"/>
	<path class="st20" d="M250.71,222.57c-15.01,0-27.23,12.21-27.23,27.23c0,15.01,12.21,27.23,27.23,27.23
		c15.01,0,27.23-12.21,27.23-27.23C277.94,234.78,265.72,222.57,250.71,222.57z"/>
</g>
<path class="st20" d="M970.4,618.55c12.04-19.93-12.12-48.83-34.46-34.47c-0.18,0.12-0.36,0.23-0.54,0.35
	c1.27-1.2,2.48-2.45,3.75-3.65c20.66-19.54-6.09-54.67-30.5-39.53c-15.3,9.48-30.38,19.29-45.38,29.23
	c12.36-11.99,24.85-23.85,37.61-35.42c21.8-19.78-5.98-52.61-30.5-39.53c-5.86,3.12-11.55,6.52-17.31,9.8
	c3.67-18.57-16.77-36.07-37.4-26.57c-55.51,25.55-106.48,59.6-151.99,100.35c-19.73,17.67,0.39,44.53,21.55,42.12
	c-15.21,18.23-29.99,36.81-44.02,56.01c-14.21,19.44,9.32,41.78,28.79,36.78c-4.4,5.83-8.85,11.62-13.17,17.52
	c-7.32,9.99-2.66,25.64,6.48,32.47c10.38,7.76,23.44,6.57,33.05-1.97c2.72-2.41,5.5-4.76,8.23-7.16
	c-4.53,5.31-9.21,10.49-13.7,15.83c-8.74,10.4-10.2,25.4,0,35.6c8.16,8.16,21.64,9.52,31.25,3.47c1.29,6.23,4.76,12.1,9.49,15.64
	c9.72,7.26,20.3,6.26,29.74,0.32c-0.74,18.39,19.8,37.37,37.36,24.06c10.33-7.83,20.66-15.66,30.99-23.49
	c6.93,13.16,25.02,20.45,39.72,7.11c22.94-20.81,47.36-39.42,73.47-56.08c13.36-8.53,14.05-23.34,8.09-34.18l25.34-28.04
	c8.37-9.26,9.99-22.98,1.97-33.05c-1.51-1.89-3.45-3.57-5.58-5.05c5.57-5.14,11.13-10.28,16.7-15.42
	C1007.09,645.29,990.58,617.82,970.4,618.55z M895.73,645.37h-0.03c-1.51,0.15-3.02,0.22-4.53,0.23c-16.59,0-32.07-8.36-41.16-22.24
	v75.75c0,30.92-25.06,55.99-55.98,55.99c-30.92,0-55.99-25.06-55.99-55.99c0-30.92,25.06-55.98,55.99-55.98
	c1.17,0,2.31,0.1,3.46,0.18v27.59c-1.15-0.14-2.28-0.35-3.46-0.35c-15.78,0-28.57,12.79-28.57,28.57
	c0,15.78,12.79,28.57,28.57,28.57c15.78,0,29.72-12.44,29.72-28.22l0.28-128.65h26.39c2.49,23.67,21.57,42.16,45.31,43.89V645.37z"
	/>
</svg>
