<svg id="Capa_1" data-name="Capa 1" xmlns="http://www.w3.org/2000/svg" viewBox="0 0 426.53 814.52"><defs><style>.cls-1{fill:#fff;}</style></defs><path class="cls-1" d="M394.57,481,360.42,522c-21.68-33.11-19.08-56.31,6.49-81.71,7.14-7.09,12.18-16.3,18.18-24.54L381,412l-37.19,28.88c-19.91-27.48-16.4-47.49,8.88-66.21,10.47-7.76,19-18.14,28.4-27.33L377,343l-45.4,26.78c-11-43.64-4.54-55.08,34.26-68,11.07-3.69,21-10.67,31.52-16.14L394.77,280l-55.95,12.74c.72-44.27,8-51.78,49.1-56,10.38-1.07,20.48-4.9,30.71-7.46l-1-6.8H369.18c15.46-48.59,54.19-49.86,92.28-54.09L439,158.79c39.13-40.13,192-37,246.32,31.14-40.82,25.87-39.82,25.43-20.26,69.94,7.56,17.19,7.31,37.73,14.42,55.21,12.35,30.33,25.85,60.5,42.29,88.75,12.7,21.82,10.15,66.48-10,82.07-3.82,3-10.65,3-16,2.72-6.38-.29-13-4.23-19-3.28-20.4,3.23-30.89-6.49-40.6-23.28-5-8.63-17.44-14.07-27.61-18.36-19.87-8.38-40.5-14.94-61.47-22.5,1.16,4,1.47,13.56,6.22,19.75,17.84,23.27,36.4,46.09,56.09,67.81,18.33,20.23,40.29,37.37,57.16,58.65,12.63,15.91,22,35.45,28.62,54.81,6.84,19.88,7.8,39.94-15.37,54.34-13.4,8.32-20.73,22.36-13.95,41.21,6.13,17-3.69,26.89-25.14,27.07-52.56.42-105.13.17-157.69.19-10.81,0-21.61.07-32.41,0-30.52-.29-31.24-3.2-31-33.57.06-10.4-10-23-18.8-30.76-10.35-9.14-13.2-15.48-6.89-28.7,12.41-26,20.69-53.49,11.13-84.39q-8,27.3-16,54.6l-5.23.27c-6.16-21.62-15-42.94-17.46-65-1.4-12.41,6.46-26.55,12.3-38.9,5.69-12,14.12-22.81,21.34-34.15Zm118.88-55.1c7.74,14.18,15.23,31.89,26.22,47.06,15.53,21.44,33.4,41.22,50.73,61.32,24.8,28.75,47,58.41,43,99.58-.27,2.75,0,6.27,1.48,8.32,2.7,3.66,6.13,7.65,10.12,9.06,1.6.57,7.53-5,8-8.29,1.37-10.47,2.8-21.44,1.14-31.72-5.68-35.09-28.55-60-51.6-85.06C572.17,493.24,542.94,459.25,513.45,425.94Zm-7.62-121.52C445.67,340,441.57,421.24,481.54,472.63c-3.55-13.6-6.9-23.62-8.72-33.91-6.15-34.77-6.64-68.22,17.38-98.33C498.07,330.52,500.77,316.53,505.83,304.42Zm-4.42-140.2c-.6,2.27-1.42,4.26-1.13,4.44q30,18.57,60.27,36.86C548.81,179.19,525.92,170.76,501.41,164.22ZM621.09,297.15c13.53,32.6,24.88,37.31,43,21.43Z" transform="translate(-326.73 -132.74)"/><path class="cls-1" d="M541.29,873c-43.17,0-86.34.14-129.51-.18-5.27,0-14.74-2-15-3.95a28.25,28.25,0,0,1,4.14-17.77c4.7-7.06,13.11-11.78,17.35-19,8.52-14.52,17.9-29.39,22-45.38s9.79-24,26.95-23.77c50.35.54,100.72.36,151.09.14,13,0,23,3.05,24.22,18.09,2,24.48,15.43,42.51,31.85,59.51,6.49,6.72,9.87,16.43,14.66,24.78-9.7,2.55-19.35,7.09-29.1,7.3-39.56.84-79.14.34-118.71.34Zm48.15-87.79v.16c8.58,0,17.26.77,25.7-.34,3.91-.51,7.34-4.69,11-7.2-3.22-2.31-6.37-6.48-9.67-6.6-17.13-.62-34.32-.58-51.44.18-3.06.13-5.92,4.7-8.88,7.23,3.23,2.19,6.29,5.85,9.74,6.27C573.62,785.84,581.57,785.19,589.44,785.19Z" transform="translate(-326.73 -132.74)"/><path class="cls-1" d="M541.48,947.23q-96,0-192,0c-20.79,0-24.36-6.34-13.4-24.19,11.74-19.13,29.69-29.56,51.71-30.67,29.41-1.49,58.92-1.46,88.39-1.53,68.32-.16,136.65,0,205,.06,26.39,0,50.24,6.54,65.74,29.8,4,6,4.38,14.51,6.42,21.86-6.59,1.57-13.17,4.47-19.76,4.5C669.5,947.37,605.49,947.23,541.48,947.23Zm117.18-48.74v.24c-12.87,0-25.77-.34-38.61.29-2.54.13-4.9,4-7.34,6.14,2.36,2.21,4.68,6.29,7.1,6.35,25.75.64,51.52.9,77.27.48,2.82,0,5.57-5,8.35-7.61-2.7-2-5.33-5.49-8.12-5.63C684.45,898.15,671.55,898.49,658.66,898.49Z" transform="translate(-326.73 -132.74)"/></svg>