<?xml version="1.0" encoding="utf-8"?>
<!-- Generator: Adobe Illustrator 26.0.0, SVG Export Plug-In . SVG Version: 6.00 Build 0)  -->
<svg version="1.1" id="Capa_1" xmlns="http://www.w3.org/2000/svg" xmlns:xlink="http://www.w3.org/1999/xlink" x="0px" y="0px"
	 viewBox="0 0 500 500" style="enable-background:new 0 0 500 500;" xml:space="preserve">
<style type="text/css">
	.st0{fill:url(#SVGID_1_);}
	.st1{fill:url(#SVGID_00000132074678751117168050000005749100124528818589_);}
	.st2{fill:url(#SVGID_00000097492428939480425760000003604780445949639594_);}
	.st3{fill:url(#SVGID_00000072973611443563773460000007967297018086638990_);}
	.st4{fill:url(#SVGID_00000148640448380374837440000001545509138993211042_);}
	.st5{fill:url(#SVGID_00000063599431293765101850000015903949927579452065_);}
	.st6{fill:url(#SVGID_00000002359357769640669850000007996512699186716827_);}
	.st7{fill:url(#SVGID_00000163763778798780600410000003724628296871780763_);}
	.st8{fill:url(#SVGID_00000021809604347174580060000006047949018252597903_);}
	.st9{fill:url(#SVGID_00000057834508580694451680000001077753311356842903_);}
	.st10{fill:url(#SVGID_00000003812947089824140790000009687430315491894402_);}
	.st11{fill:url(#SVGID_00000080194714199495988530000012768192999093001613_);}
	.st12{fill:url(#SVGID_00000020359145906689879960000003464082507480696962_);}
	.st13{fill:url(#SVGID_00000022560636556933310910000003546156281667190455_);}
	.st14{fill:url(#SVGID_00000029740095292756344940000016531080116088139674_);}
	.st15{fill:url(#SVGID_00000168084099863685229750000005405620265824701358_);}
	.st16{fill:url(#SVGID_00000150795277315077398480000006924651353217664652_);}
	.st17{fill:url(#SVGID_00000013899875923614052900000005762004292396268710_);}
	.st18{fill:url(#SVGID_00000101071049534889463680000014491039579528729528_);}
	.st19{fill:#EE1D52;}
	.st20{fill:#FFFFFF;}
	.st21{fill:#69C9D0;}
</style>
<linearGradient id="SVGID_1_" gradientUnits="userSpaceOnUse" x1="-423.3907" y1="182.0878" x2="-184.1376" y2="421.3409">
	<stop  offset="0" style="stop-color:#33CCFF"/>
	<stop  offset="1" style="stop-color:#337FFF"/>
</linearGradient>
<path class="st0" d="M-145.56,250.5c12.04-19.93-12.12-48.83-34.46-34.47c-0.18,0.12-0.36,0.23-0.54,0.35
	c1.27-1.2,2.48-2.45,3.75-3.65c20.66-19.54-6.09-54.67-30.5-39.53c-15.29,9.48-30.38,19.29-45.38,29.23
	c12.36-11.99,24.85-23.85,37.61-35.42c21.8-19.78-5.98-52.61-30.5-39.53c-5.86,3.12-11.55,6.52-17.31,9.8
	c3.67-18.57-16.77-36.07-37.4-26.57c-55.51,25.55-106.48,59.6-151.99,100.35c-19.73,17.67,0.39,44.53,21.55,42.12
	c-15.21,18.23-29.99,36.81-44.02,56.01c-14.21,19.44,9.32,41.78,28.79,36.78c-4.4,5.83-8.85,11.62-13.17,17.52
	c-7.32,9.99-2.66,25.64,6.48,32.47c10.38,7.76,23.44,6.57,33.05-1.97c2.72-2.41,5.5-4.76,8.23-7.16
	c-4.53,5.31-9.21,10.49-13.7,15.83c-8.74,10.4-10.2,25.4,0,35.6c8.16,8.16,21.64,9.52,31.25,3.47c1.29,6.23,4.76,12.1,9.49,15.64
	c9.72,7.26,20.3,6.26,29.74,0.32c-0.74,18.39,19.8,37.37,37.36,24.06c10.33-7.83,20.66-15.66,30.99-23.49
	c6.93,13.16,25.02,20.45,39.72,7.11c22.94-20.81,47.36-39.42,73.47-56.08c13.36-8.53,14.05-23.34,8.09-34.18l25.34-28.04
	c8.37-9.26,9.99-22.98,1.97-33.05c-1.51-1.89-3.45-3.57-5.58-5.05c5.57-5.14,11.13-10.28,16.7-15.42
	C-108.86,277.23-125.38,249.76-145.56,250.5z M-217.07,246.81c0,0.41-0.01,1.42-0.85,2.56c-3.75,5.05-7.81,9.57-12.83,13.35
	c-0.73,0.55-1.95,1.12-1.95,2.16c0,26.51-6.77,52.99-26.1,72.19c-24.61,24.45-61.53,31.1-94.3,22.05
	c-6.35-1.75-12.42-4.21-18.24-7.3c-1.93-1.05-3.82-2.14-5.68-3.37c-0.47-0.38-0.82-0.73-0.42-0.98c0.4-0.2,0.71-0.22,2.17,0
	c9.17,0.9,18.61-0.46,27.28-3.49c4.77-1.67,15.01-5.02,17.96-9.52c0.07-0.1,0.14-0.1,0.21-0.21c-1.2-0.28-2.39-0.28-3.58-0.49
	c-8.9-2.55-20.8-7.01-26.3-22.03c-0.35-0.88,0-1.33,0.91-1.16c7.33,0.57,9.96,0.17,12.52-0.39c-1.44-0.24-2.91-0.74-4.24-1.3
	c-11.22-4.27-19.41-15.21-20.91-27.04c-0.17-1.37-0.28-2.53-0.21-3.79c0.07-0.88,0.46-1.16,1.23-0.67
	c5.77,2.98,12.24,3.69,12.76,3.58c-1.44-1.12-2.77-2.35-4.07-3.58c-9.73-9.21-13.5-27.96-5.72-39.63c0.63-0.95,1.05-0.95,1.82-0.07
	c17.79,20.27,39.71,29.74,66.15,33.67c0.7,0.1,0.77,0,0.66-0.77c-0.69-4.66-0.78-9.22,0.35-13.82c1.17-4.77,3.45-9.28,6.54-13.09
	c2.99-3.69,6.74-6.74,10.95-8.94c4.2-2.19,8.84-3.53,13.57-3.83c4.86-0.32,9.79,0.46,14.3,2.3c3.44,1.4,6.48,3.3,9.33,5.71
	c0.6,0.49,1.12,1.09,1.68,1.72c0.35,0.35,0.77,0.49,1.33,0.35c6.76-1.69,13.11-4.08,19.25-7.37c0.28-0.14,0.51-0.21,0.86-0.07
	c0.28,0.21,0.18,0.56,0.04,0.84c-1.1,3.59-3.04,6.91-5.39,9.83c-1.54,1.91-5.37,6.64-7.98,7.08c5.5-0.92,11.14-2.32,16.24-4.63
	c0.65-0.3,0.66-0.42,0.66,0C-217.07,246.67-217.07,246.74-217.07,246.81z"/>
<g>
	
		<linearGradient id="SVGID_00000004520929492162517170000012435279049336063637_" gradientUnits="userSpaceOnUse" x1="-397.0515" y1="742.8701" x2="-361.4195" y2="778.502">
		<stop  offset="0" style="stop-color:#FF0000"/>
		<stop  offset="1" style="stop-color:#850000"/>
	</linearGradient>
	<path style="fill:url(#SVGID_00000004520929492162517170000012435279049336063637_);" d="M-347.36,758.49l-38.8-21.11
		c-1.59-0.91-7.03,0.24-7.03,2.07v41.16c0,1.81,5.4,2.96,6.99,2.1l40.53-20.05C-344.03,761.77-345.74,759.42-347.36,758.49z"/>
	
		<linearGradient id="SVGID_00000041279351217468473410000007275347106032433314_" gradientUnits="userSpaceOnUse" x1="-495.6525" y1="646.1525" x2="-256.3991" y2="885.4059">
		<stop  offset="0" style="stop-color:#FF0000"/>
		<stop  offset="1" style="stop-color:#850000"/>
	</linearGradient>
	<path style="fill:url(#SVGID_00000041279351217468473410000007275347106032433314_);" d="M-217.82,714.56
		c12.04-19.93-12.12-48.83-34.46-34.47c-0.18,0.12-0.36,0.23-0.54,0.35c1.27-1.2,2.48-2.45,3.75-3.65
		c20.66-19.54-6.09-54.67-30.5-39.53c-15.3,9.48-30.38,19.29-45.38,29.23c12.36-11.99,24.85-23.85,37.61-35.42
		c21.8-19.78-5.98-52.61-30.5-39.53c-5.86,3.12-11.55,6.52-17.31,9.8c3.67-18.57-16.77-36.07-37.4-26.57
		c-55.51,25.55-106.48,59.6-151.99,100.35c-19.73,17.67,0.39,44.53,21.55,42.12c-15.21,18.23-29.99,36.81-44.02,56.02
		c-14.21,19.44,9.32,41.77,28.79,36.78c-4.4,5.83-8.85,11.62-13.17,17.52c-7.32,9.99-2.66,25.64,6.48,32.47
		c10.38,7.76,23.44,6.57,33.05-1.97c2.72-2.42,5.5-4.76,8.23-7.16c-4.53,5.31-9.21,10.49-13.7,15.83c-8.74,10.4-10.2,25.4,0,35.6
		c8.16,8.16,21.64,9.52,31.25,3.47c1.29,6.23,4.76,12.1,9.49,15.64c9.72,7.26,20.3,6.26,29.74,0.32
		c-0.74,18.39,19.8,37.37,37.36,24.06c10.33-7.83,20.66-15.66,30.99-23.49c6.93,13.16,25.02,20.45,39.71,7.11
		c22.94-20.81,47.36-39.42,73.47-56.08c13.36-8.53,14.05-23.34,8.09-34.18l25.34-28.04c8.37-9.26,9.99-22.98,1.97-33.05
		c-1.51-1.89-3.45-3.58-5.58-5.05c5.57-5.14,11.13-10.28,16.7-15.42C-181.13,741.3-197.64,713.82-217.82,714.56z M-292.52,780.54
		c0,19.52-15.83,35.35-35.35,35.35h-90.39c-19.52,0-35.35-15.83-35.35-35.35v-42.06c0-19.52,15.83-35.35,35.35-35.35h90.39
		c19.52,0,35.35,15.83,35.35,35.35V780.54z"/>
</g>
<g>
	
		<linearGradient id="SVGID_00000029003500419286931280000009195739176503502251_" gradientUnits="userSpaceOnUse" x1="-625.7152" y1="-47.2627" x2="-587.226" y2="-8.7734">
		<stop  offset="1.104800e-03" style="stop-color:#FBE18A"/>
		<stop  offset="0.2094" style="stop-color:#FCBB45"/>
		<stop  offset="0.3765" style="stop-color:#F75274"/>
		<stop  offset="0.5238" style="stop-color:#D53692"/>
		<stop  offset="0.7394" style="stop-color:#8F39CE"/>
		<stop  offset="1" style="stop-color:#5B4FE9"/>
	</linearGradient>
	<path style="fill:url(#SVGID_00000029003500419286931280000009195739176503502251_);" d="M-606.47-55.25
		c-15.01,0-27.23,12.21-27.23,27.23c0,15.01,12.21,27.23,27.23,27.23c15.01,0,27.23-12.21,27.23-27.23
		C-579.24-43.03-591.46-55.25-606.47-55.25z"/>
	
		<linearGradient id="SVGID_00000074418887338925450120000012655207856796741306_" gradientUnits="userSpaceOnUse" x1="-666.8032" y1="-87.6412" x2="-547.5563" y2="31.6056">
		<stop  offset="1.104800e-03" style="stop-color:#FBE18A"/>
		<stop  offset="0.2094" style="stop-color:#FCBB45"/>
		<stop  offset="0.3765" style="stop-color:#F75274"/>
		<stop  offset="0.5238" style="stop-color:#D53692"/>
		<stop  offset="0.7394" style="stop-color:#8F39CE"/>
		<stop  offset="1" style="stop-color:#5B4FE9"/>
	</linearGradient>
	<path style="fill:url(#SVGID_00000074418887338925450120000012655207856796741306_);" d="M-572.72-98.08h-68.91
		c-19.63,0-35.61,15.97-35.61,35.61V6.44c0,19.64,15.97,35.61,35.61,35.61h68.91c19.64,0,35.61-15.97,35.61-35.61v-68.91
		C-537.12-82.11-553.09-98.08-572.72-98.08z M-606.47,14.49c-23.44,0-42.51-19.07-42.51-42.51c0-23.44,19.07-42.51,42.51-42.51
		c23.44,0,42.51,19.07,42.51,42.51C-563.96-4.58-583.03,14.49-606.47,14.49z M-561.48-63.26c-5.59,0-10.12-4.53-10.12-10.12
		c0-5.59,4.53-10.12,10.12-10.12c5.59,0,10.12,4.53,10.12,10.12C-551.36-67.79-555.89-63.26-561.48-63.26z"/>
	
		<linearGradient id="SVGID_00000032632987933273204620000009767162927199542679_" gradientUnits="userSpaceOnUse" x1="-731.5017" y1="-142.8388" x2="-492.2484" y2="96.4145">
		<stop  offset="1.104800e-03" style="stop-color:#FBE18A"/>
		<stop  offset="0.2094" style="stop-color:#FCBB45"/>
		<stop  offset="0.3765" style="stop-color:#F75274"/>
		<stop  offset="0.5238" style="stop-color:#D53692"/>
		<stop  offset="0.7394" style="stop-color:#8F39CE"/>
		<stop  offset="1" style="stop-color:#5B4FE9"/>
	</linearGradient>
	<path style="fill:url(#SVGID_00000032632987933273204620000009767162927199542679_);" d="M-453.67-74.43
		c12.04-19.93-12.12-48.83-34.46-34.47c-0.18,0.12-0.36,0.23-0.54,0.35c1.27-1.2,2.48-2.45,3.75-3.65
		c20.66-19.54-6.09-54.67-30.5-39.53c-15.3,9.48-30.38,19.29-45.38,29.23c12.36-11.99,24.85-23.85,37.61-35.42
		c21.8-19.78-5.98-52.61-30.5-39.53c-5.86,3.12-11.55,6.52-17.31,9.8c3.67-18.57-16.77-36.07-37.4-26.57
		c-55.51,25.55-106.48,59.6-151.99,100.35c-19.73,17.67,0.39,44.53,21.55,42.12c-15.21,18.23-29.99,36.81-44.02,56.01
		c-14.21,19.44,9.32,41.78,28.79,36.78c-4.4,5.83-8.85,11.62-13.17,17.52c-7.32,9.99-2.66,25.64,6.48,32.47
		c10.38,7.76,23.44,6.57,33.05-1.97c2.72-2.41,5.5-4.76,8.23-7.16c-4.53,5.31-9.21,10.49-13.7,15.83c-8.74,10.4-10.2,25.4,0,35.6
		c8.16,8.16,21.64,9.52,31.25,3.47c1.29,6.23,4.76,12.1,9.49,15.64c9.72,7.26,20.3,6.26,29.74,0.32
		c-0.74,18.39,19.8,37.37,37.36,24.06c10.33-7.83,20.66-15.66,30.99-23.49c6.93,13.16,25.02,20.45,39.71,7.11
		c22.94-20.81,47.36-39.42,73.47-56.08c13.36-8.53,14.05-23.34,8.09-34.18l25.34-28.04c8.37-9.26,9.99-22.98,1.97-33.05
		c-1.51-1.89-3.45-3.57-5.58-5.05c5.57-5.14,11.13-10.28,16.7-15.42C-416.97-47.69-433.49-75.17-453.67-74.43z M-520.88,6.44
		c0,28.59-23.26,51.85-51.85,51.85h-68.91c-28.59,0-51.84-23.26-51.84-51.85v-68.91c0-28.59,23.26-51.85,51.84-51.85h68.91
		c28.59,0,51.85,23.26,51.85,51.85V6.44z"/>
</g>
<g>
	
		<linearGradient id="SVGID_00000134946046351701034700000009313947535919027883_" gradientUnits="userSpaceOnUse" x1="112.9798" y1="147.6705" x2="352.2328" y2="386.9235">
		<stop  offset="0" style="stop-color:#22004A"/>
		<stop  offset="0.9565" style="stop-color:#020003"/>
		<stop  offset="1" style="stop-color:#000000"/>
	</linearGradient>
	<path style="fill:url(#SVGID_00000134946046351701034700000009313947535919027883_);" d="M272.87,306.82
		c-0.18,0.31-0.36,0.62-0.55,0.92C272.51,307.44,272.69,307.13,272.87,306.82z"/>
	
		<linearGradient id="SVGID_00000020399855562806776530000018077021256522638737_" gradientUnits="userSpaceOnUse" x1="187.9615" y1="72.6884" x2="427.2148" y2="311.9417">
		<stop  offset="0" style="stop-color:#22004A"/>
		<stop  offset="0.9565" style="stop-color:#020003"/>
		<stop  offset="1" style="stop-color:#000000"/>
	</linearGradient>
	<path style="fill:url(#SVGID_00000020399855562806776530000018077021256522638737_);" d="M320.2,204.25
		c-0.7-0.21-1.38-0.46-2.07-0.7C318.82,203.79,319.5,204.04,320.2,204.25z"/>
	
		<linearGradient id="SVGID_00000130636224003679604000000012506951384592183486_" gradientUnits="userSpaceOnUse" x1="125.6689" y1="134.9811" x2="364.9221" y2="374.2343">
		<stop  offset="0" style="stop-color:#22004A"/>
		<stop  offset="0.9565" style="stop-color:#020003"/>
		<stop  offset="1" style="stop-color:#000000"/>
	</linearGradient>
	<polygon style="fill:url(#SVGID_00000130636224003679604000000012506951384592183486_);" points="231.79,253.3 231.79,253.3 
		231.79,228.9 231.79,228.9 	"/>
	
		<linearGradient id="SVGID_00000062872472923223169920000014743196503568222620_" gradientUnits="userSpaceOnUse" x1="118.323" y1="142.327" x2="357.5763" y2="381.5802">
		<stop  offset="0" style="stop-color:#22004A"/>
		<stop  offset="0.9565" style="stop-color:#020003"/>
		<stop  offset="1" style="stop-color:#000000"/>
	</linearGradient>
	<path style="fill:url(#SVGID_00000062872472923223169920000014743196503568222620_);" d="M227.93,252.39
		c0.38,0.06,0.76,0.14,1.14,0.22C228.69,252.54,228.31,252.45,227.93,252.39z"/>
	
		<linearGradient id="SVGID_00000146480158921065631970000018429521466563646898_" gradientUnits="userSpaceOnUse" x1="187.0115" y1="73.6385" x2="426.2648" y2="312.8918">
		<stop  offset="0" style="stop-color:#22004A"/>
		<stop  offset="0.9565" style="stop-color:#020003"/>
		<stop  offset="1" style="stop-color:#000000"/>
	</linearGradient>
	<path style="fill:url(#SVGID_00000146480158921065631970000018429521466563646898_);" d="M317.04,203.17
		c-0.59-0.22-1.15-0.49-1.73-0.74C315.88,202.68,316.45,202.95,317.04,203.17z"/>
	
		<linearGradient id="SVGID_00000049210195514502416630000014059478622521522618_" gradientUnits="userSpaceOnUse" x1="119.1777" y1="141.4722" x2="358.431" y2="380.7255">
		<stop  offset="0" style="stop-color:#22004A"/>
		<stop  offset="0.9565" style="stop-color:#020003"/>
		<stop  offset="1" style="stop-color:#000000"/>
	</linearGradient>
	<path style="fill:url(#SVGID_00000049210195514502416630000014059478622521522618_);" d="M229.88,252.77
		c0.56,0.13,1.11,0.29,1.66,0.46C230.99,253.06,230.44,252.9,229.88,252.77z"/>
	
		<linearGradient id="SVGID_00000152949339044943390810000015197658362009983380_" gradientUnits="userSpaceOnUse" x1="185.1396" y1="75.5103" x2="424.3929" y2="314.7636">
		<stop  offset="0" style="stop-color:#22004A"/>
		<stop  offset="0.9565" style="stop-color:#020003"/>
		<stop  offset="1" style="stop-color:#000000"/>
	</linearGradient>
	<path style="fill:url(#SVGID_00000152949339044943390810000015197658362009983380_);" d="M308.2,198.53
		c-0.1-0.07-0.2-0.15-0.3-0.22C308,198.38,308.1,198.46,308.2,198.53z"/>
	
		<linearGradient id="SVGID_00000078746341018302536940000003138791383695042749_" gradientUnits="userSpaceOnUse" x1="101.8031" y1="158.8467" x2="341.0565" y2="398.1001">
		<stop  offset="0" style="stop-color:#22004A"/>
		<stop  offset="0.9565" style="stop-color:#020003"/>
		<stop  offset="1" style="stop-color:#000000"/>
	</linearGradient>
	<path style="fill:url(#SVGID_00000078746341018302536940000003138791383695042749_);" d="M232.89,311.38
		c11.61,0,21.44-7.63,24.75-18.15C254.34,303.76,244.51,311.38,232.89,311.38z"/>
	
		<linearGradient id="SVGID_00000060736283178405099130000010245303097954120124_" gradientUnits="userSpaceOnUse" x1="125.677" y1="134.973" x2="364.9302" y2="374.2262">
		<stop  offset="0" style="stop-color:#22004A"/>
		<stop  offset="0.9565" style="stop-color:#020003"/>
		<stop  offset="1" style="stop-color:#000000"/>
	</linearGradient>
	<path style="fill:url(#SVGID_00000060736283178405099130000010245303097954120124_);" d="M403.51,203.38
		c12.04-19.93-12.12-48.83-34.46-34.47c-0.18,0.12-0.36,0.23-0.54,0.35c1.27-1.2,2.48-2.45,3.75-3.65
		c20.66-19.54-6.09-54.67-30.5-39.53c-15.29,9.48-30.38,19.29-45.38,29.23c12.36-11.99,24.85-23.85,37.61-35.42
		c21.8-19.78-5.98-52.61-30.5-39.53c-5.86,3.12-11.55,6.52-17.31,9.8c3.67-18.57-16.77-36.07-37.4-26.57
		c-55.51,25.55-106.48,59.6-151.99,100.35c-19.73,17.67,0.39,44.53,21.55,42.12c-15.21,18.23-29.99,36.81-44.02,56.01
		c-14.21,19.44,9.32,41.78,28.79,36.78c-4.4,5.83-8.85,11.62-13.17,17.52c-7.32,9.99-2.66,25.64,6.48,32.47
		c10.38,7.76,23.44,6.57,33.05-1.97c2.72-2.41,5.5-4.76,8.23-7.16c-4.53,5.31-9.21,10.49-13.7,15.83c-8.74,10.4-10.2,25.4,0,35.6
		c8.16,8.16,21.64,9.52,31.25,3.47c1.29,6.23,4.76,12.1,9.49,15.64c9.72,7.26,20.3,6.26,29.74,0.32
		c-0.74,18.39,19.8,37.37,37.36,24.06c10.33-7.83,20.66-15.66,30.99-23.49c6.93,13.16,25.02,20.45,39.71,7.11
		c22.94-20.81,47.36-39.42,73.47-56.08c13.36-8.53,14.05-23.34,8.09-34.18l25.34-28.04c8.37-9.26,9.99-22.98,1.97-33.05
		c-1.51-1.89-3.45-3.57-5.58-5.05c5.57-5.14,11.13-10.28,16.7-15.42C440.2,230.12,423.69,202.64,403.51,203.38z M332.42,236.67
		c-15.94,0-30.7-5.06-42.74-13.67v62.56c0,31.3-25.38,56.66-56.7,56.66c-15.88,0-30.24-6.53-40.53-17.05c0,0,0,0,0,0c0,0,0,0,0-0.01
		c-15.16-10.17-25.13-27.46-25.13-47.08c0-31.29,25.38-56.66,56.7-56.66c2.6,0,5.2,0.17,7.78,0.53v6.95c3-0.06,6,0.11,8.97,0.52
		v31.34c-2.54-0.81-5.2-1.22-7.87-1.21c-14.32,0-25.93,11.6-25.93,25.92c-0.01,5.67,1.85,11.18,5.29,15.69
		c-8.46-4.27-14.26-13.03-14.26-23.15c0-14.31,11.61-25.92,25.93-25.92c0,0,0,0,0,0c-14.32,0-25.93,11.6-25.93,25.92
		c0,10.12,5.8,18.88,14.26,23.15c3.51,1.77,7.47,2.76,11.67,2.76c14.29,0,25.88-11.56,25.93-25.83V155.65h30.85v3.94
		c0.11,1.18,0.27,2.35,0.47,3.52h8.51v3.94c0.87,9.6,4.92,18.29,11.07,25.02c0.43,0.46,0.88,0.9,1.33,1.34
		c-0.44-0.45-0.9-0.88-1.33-1.34c6.81,4.25,14.67,6.49,22.69,6.48v6.53c2.95,0.63,5.96,0.94,8.98,0.94V236.67z"/>
	
		<linearGradient id="SVGID_00000145018328023712660700000014632156116410989991_" gradientUnits="userSpaceOnUse" x1="117.3488" y1="143.3011" x2="356.6021" y2="382.5544">
		<stop  offset="0" style="stop-color:#22004A"/>
		<stop  offset="0.9565" style="stop-color:#020003"/>
		<stop  offset="1" style="stop-color:#000000"/>
	</linearGradient>
	<path style="fill:url(#SVGID_00000145018328023712660700000014632156116410989991_);" d="M225.94,252.16
		c0.2,0.02,0.4,0.05,0.6,0.07C226.34,252.21,226.15,252.18,225.94,252.16z"/>
	
		<linearGradient id="SVGID_00000165232254355848506150000006099410388147933843_" gradientUnits="userSpaceOnUse" x1="286.5781" y1="219.8951" x2="292.7797" y2="226.0968">
		<stop  offset="0" style="stop-color:#22004A"/>
		<stop  offset="0.9565" style="stop-color:#020003"/>
		<stop  offset="1" style="stop-color:#000000"/>
	</linearGradient>
	<polygon style="fill:url(#SVGID_00000165232254355848506150000006099410388147933843_);" points="289.68,223 289.68,223 
		289.68,223 	"/>
	
		<linearGradient id="SVGID_00000175302637929270892400000012179354083073739395_" gradientUnits="userSpaceOnUse" x1="186.2318" y1="74.4181" x2="425.4851" y2="313.6714">
		<stop  offset="0" style="stop-color:#22004A"/>
		<stop  offset="0.9565" style="stop-color:#020003"/>
		<stop  offset="1" style="stop-color:#000000"/>
	</linearGradient>
	<path style="fill:url(#SVGID_00000175302637929270892400000012179354083073739395_);" d="M313.97,201.85
		c-0.43-0.21-0.85-0.45-1.27-0.67C313.12,201.41,313.54,201.65,313.97,201.85z"/>
	
		<linearGradient id="SVGID_00000134230115209337438850000012965783353671840941_" gradientUnits="userSpaceOnUse" x1="185.6092" y1="75.0407" x2="424.8625" y2="314.294">
		<stop  offset="0" style="stop-color:#22004A"/>
		<stop  offset="0.9565" style="stop-color:#020003"/>
		<stop  offset="1" style="stop-color:#000000"/>
	</linearGradient>
	<path style="fill:url(#SVGID_00000134230115209337438850000012965783353671840941_);" d="M311.02,200.3
		c-0.27-0.15-0.52-0.33-0.78-0.49C310.5,199.97,310.75,200.15,311.02,200.3z"/>
	<path class="st19" d="M231.79,253.3L231.79,253.3c-0.08-0.03-0.17-0.04-0.25-0.07c-0.55-0.17-1.1-0.32-1.66-0.46
		c-0.26-0.06-0.54-0.1-0.81-0.16c-0.38-0.08-0.76-0.16-1.14-0.22c-0.46-0.07-0.92-0.11-1.38-0.16c-0.2-0.02-0.4-0.05-0.6-0.07
		c-0.67-0.05-1.34-0.08-2.03-0.08c-14.32,0-25.93,11.6-25.93,25.92c0,10.12,5.8,18.88,14.26,23.15c-3.44-4.51-5.3-10.02-5.29-15.69
		c0-14.31,11.61-25.92,25.93-25.92c2.67,0,5.32,0.41,7.87,1.21v-31.34c-2.97-0.41-5.97-0.58-8.97-0.52L231.79,253.3
		C231.79,253.3,231.79,253.3,231.79,253.3z"/>
	<path class="st19" d="M323.45,229.2c-15.94,0-30.69-5.06-42.74-13.67v62.56v0c0,10.49-2.86,20.31-7.83,28.73
		c-0.18,0.31-0.36,0.62-0.55,0.92c-9.98,16.2-27.88,27.01-48.31,27.01c-11.68,0-22.54-3.53-31.56-9.58
		c10.29,10.52,24.65,17.05,40.53,17.05c31.31,0,56.7-25.37,56.7-56.66V223c0,0,0,0,0,0h0v0c12.05,8.61,26.8,13.67,42.74,13.67
		v-30.66c-3.02,0-6.02-0.31-8.98-0.94V229.2z"/>
	<path class="st19" d="M300.75,192.07c-6.16-6.72-10.2-15.41-11.07-25.02v-3.94h-8.51C283.31,175.32,290.62,185.75,300.75,192.07z"
		/>
	<path class="st20" d="M280.7,278.09L280.7,278.09c0,10.49-2.86,20.31-7.83,28.73C277.84,298.4,280.7,288.58,280.7,278.09z"/>
	<path class="st20" d="M231.79,253.3c-0.08-0.03-0.17-0.04-0.25-0.07C231.62,253.25,231.71,253.27,231.79,253.3L231.79,253.3z"/>
	<path class="st20" d="M272.32,307.75c-9.98,16.2-27.88,27.01-48.31,27.01c-11.68,0-22.54-3.53-31.56-9.58c0,0,0,0,0,0
		c9.02,6.05,19.88,9.58,31.56,9.58C244.44,334.76,262.34,323.95,272.32,307.75z"/>
	<path class="st20" d="M229.07,252.62c0.27,0.05,0.54,0.1,0.81,0.16C229.61,252.71,229.34,252.67,229.07,252.62z"/>
	<path class="st20" d="M223.92,252.08C223.92,252.08,223.92,252.08,223.92,252.08c0.68,0,1.36,0.03,2.02,0.08
		C225.27,252.11,224.6,252.08,223.92,252.08z"/>
	<path class="st20" d="M226.55,252.23c0.46,0.05,0.93,0.09,1.38,0.16C227.47,252.32,227.01,252.28,226.55,252.23z"/>
	<path class="st21" d="M307.9,198.31c0.1,0.07,0.2,0.15,0.3,0.22c0.66,0.45,1.35,0.87,2.04,1.28c0.26,0.16,0.51,0.33,0.78,0.49
		c0.55,0.32,1.12,0.59,1.68,0.89c0.43,0.22,0.84,0.46,1.27,0.67c0.44,0.21,0.89,0.38,1.34,0.58c0.58,0.25,1.14,0.52,1.73,0.74
		c0.36,0.14,0.73,0.25,1.1,0.37c0.69,0.24,1.37,0.49,2.07,0.7c1.06,0.32,2.14,0.59,3.24,0.83v-6.53
		c-8.02,0.01-15.89-2.23-22.69-6.48c0.43,0.47,0.88,0.9,1.33,1.34C303.87,195.21,305.81,196.85,307.9,198.31z"/>
	<path class="st21" d="M231.79,228.9L231.79,228.9C231.79,228.9,231.79,228.9,231.79,228.9l0-6.95c-2.58-0.35-5.18-0.53-7.78-0.53
		c-31.31,0-56.7,25.37-56.7,56.66c0,19.62,9.97,36.91,25.13,47.08c-10-10.21-16.15-24.19-16.15-39.61
		C176.29,254.66,201.03,229.54,231.79,228.9z"/>
	<path class="st21" d="M232.89,311.38c11.61,0,21.44-7.63,24.75-18.15c0.76-2.43,1.18-5.01,1.19-7.68V163.11h22.34
		c-0.2-1.17-0.36-2.34-0.47-3.52v-3.94h-30.85v122.44c-0.05,14.27-11.64,25.83-25.93,25.83c-4.2,0-8.16-0.99-11.67-2.76
		C216.99,307.37,224.47,311.38,232.89,311.38z"/>
	<path class="st21" d="M323.45,205.07c-1.1-0.23-2.18-0.51-3.24-0.83C321.27,204.56,322.35,204.84,323.45,205.07z"/>
	<path class="st21" d="M176.29,285.55c0-30.89,24.74-56.01,55.5-56.65l0,0C201.03,229.54,176.29,254.66,176.29,285.55
		c0,15.42,6.16,29.4,16.15,39.61c0,0,0,0,0.01,0C182.45,314.96,176.29,300.98,176.29,285.55z"/>
	<path class="st21" d="M315.31,202.43c-0.45-0.19-0.9-0.37-1.34-0.58C314.41,202.06,314.86,202.24,315.31,202.43z"/>
	<path class="st21" d="M310.24,199.81c-0.69-0.42-1.38-0.83-2.04-1.28C308.86,198.98,309.55,199.4,310.24,199.81z"/>
	<path class="st21" d="M312.7,201.19c-0.56-0.29-1.13-0.57-1.68-0.89C311.56,200.62,312.13,200.9,312.7,201.19z"/>
	<path class="st21" d="M318.13,203.55c-0.36-0.13-0.74-0.24-1.1-0.37C317.4,203.31,317.77,203.42,318.13,203.55z"/>
	<path class="st21" d="M307.9,198.31c-2.09-1.46-4.03-3.1-5.82-4.9C303.88,195.22,305.82,196.86,307.9,198.31z"/>
</g>
<path d="M403.51-364.45c12.04-19.93-12.12-48.83-34.46-34.47c-0.18,0.12-0.36,0.23-0.54,0.35c1.27-1.2,2.48-2.45,3.75-3.65
	c20.66-19.54-6.09-54.67-30.5-39.53c-15.3,9.48-30.38,19.29-45.38,29.23c12.36-11.99,24.85-23.85,37.61-35.42
	c21.8-19.78-5.98-52.61-30.5-39.53c-5.86,3.12-11.55,6.52-17.31,9.8c3.67-18.57-16.77-36.07-37.4-26.57
	c-55.51,25.55-106.48,59.6-151.99,100.35c-19.73,17.67,0.39,44.53,21.55,42.12c-15.21,18.23-29.99,36.81-44.02,56.01
	c-14.21,19.44,9.32,41.78,28.8,36.78c-4.4,5.83-8.85,11.62-13.17,17.52c-7.32,9.99-2.66,25.64,6.48,32.47
	c10.38,7.76,23.44,6.57,33.05-1.97c2.72-2.41,5.5-4.76,8.23-7.16c-4.53,5.31-9.21,10.49-13.7,15.83c-8.74,10.4-10.2,25.4,0,35.6
	c8.16,8.16,21.64,9.52,31.25,3.47c1.29,6.23,4.76,12.1,9.49,15.64c9.72,7.26,20.3,6.26,29.74,0.32
	c-0.74,18.39,19.8,37.37,37.36,24.06c10.33-7.83,20.66-15.66,30.99-23.49c6.93,13.16,25.02,20.45,39.71,7.11
	c22.94-20.81,47.36-39.42,73.47-56.08c13.36-8.53,14.05-23.34,8.09-34.18l25.34-28.04c8.37-9.26,9.99-22.98,1.97-33.05
	c-1.51-1.89-3.45-3.57-5.58-5.05c5.57-5.14,11.13-10.28,16.7-15.42C440.2-337.71,423.69-365.19,403.51-364.45z M332-368.13
	c0,0.41-0.01,1.42-0.85,2.56c-3.75,5.05-7.81,9.57-12.83,13.35c-0.73,0.55-1.95,1.12-1.95,2.16c0,26.51-6.77,52.99-26.1,72.19
	c-24.61,24.45-61.53,31.1-94.3,22.05c-6.35-1.75-12.42-4.21-18.24-7.3c-1.93-1.05-3.82-2.14-5.68-3.37
	c-0.47-0.38-0.82-0.73-0.42-0.98c0.4-0.2,0.71-0.22,2.17,0c9.17,0.9,18.61-0.46,27.28-3.49c4.77-1.67,15.01-5.02,17.96-9.52
	c0.07-0.1,0.14-0.1,0.21-0.21c-1.2-0.28-2.39-0.28-3.58-0.49c-8.9-2.55-20.8-7.01-26.3-22.03c-0.35-0.88,0-1.33,0.91-1.16
	c7.33,0.57,9.96,0.17,12.52-0.39c-1.44-0.24-2.91-0.74-4.24-1.3c-11.22-4.27-19.41-15.21-20.91-27.04
	c-0.17-1.37-0.28-2.53-0.21-3.79c0.07-0.88,0.46-1.16,1.23-0.67c5.77,2.98,12.24,3.68,12.76,3.58c-1.44-1.12-2.77-2.35-4.07-3.58
	c-9.73-9.21-13.5-27.96-5.72-39.63c0.63-0.95,1.05-0.95,1.82-0.07c17.79,20.27,39.71,29.74,66.15,33.67c0.7,0.1,0.77,0,0.66-0.77
	c-0.69-4.66-0.78-9.22,0.35-13.82c1.17-4.77,3.45-9.28,6.54-13.09c2.99-3.69,6.74-6.74,10.95-8.94c4.2-2.19,8.84-3.53,13.57-3.83
	c4.86-0.32,9.79,0.46,14.3,2.3c3.44,1.4,6.48,3.3,9.33,5.71c0.6,0.49,1.12,1.09,1.68,1.72c0.35,0.35,0.77,0.49,1.33,0.35
	c6.76-1.69,13.11-4.08,19.25-7.37c0.28-0.14,0.51-0.21,0.86-0.07c0.28,0.21,0.18,0.56,0.04,0.84c-1.1,3.59-3.04,6.91-5.39,9.83
	c-1.54,1.91-5.37,6.64-7.98,7.08c5.5-0.92,11.14-2.32,16.24-4.63c0.65-0.3,0.66-0.42,0.66,0C332-368.27,332-368.2,332-368.13z"/>
<g>
	<path d="M1501.54-117.01l-38.8-21.11c-1.59-0.91-7.03,0.24-7.03,2.07v41.16c0,1.81,5.4,2.96,6.99,2.1l40.53-20.05
		C1504.88-113.73,1503.17-116.08,1501.54-117.01z"/>
	<path d="M1631.09-160.94c12.04-19.93-12.12-48.83-34.46-34.47c-0.18,0.12-0.36,0.23-0.54,0.35c1.27-1.2,2.48-2.45,3.75-3.65
		c20.65-19.54-6.09-54.67-30.5-39.53c-15.3,9.48-30.38,19.29-45.38,29.23c12.36-11.99,24.85-23.85,37.61-35.42
		c21.8-19.78-5.98-52.61-30.5-39.53c-5.86,3.12-11.55,6.52-17.31,9.8c3.67-18.57-16.77-36.07-37.4-26.57
		c-55.51,25.55-106.48,59.6-151.99,100.35c-19.73,17.67,0.39,44.53,21.55,42.12c-15.21,18.23-29.99,36.81-44.02,56.02
		c-14.21,19.44,9.32,41.77,28.8,36.78c-4.4,5.83-8.85,11.62-13.17,17.52c-7.32,9.99-2.66,25.64,6.48,32.47
		c10.38,7.76,23.44,6.57,33.05-1.97c2.72-2.42,5.5-4.76,8.23-7.16c-4.53,5.31-9.21,10.49-13.7,15.83c-8.74,10.4-10.2,25.4,0,35.6
		c8.16,8.16,21.64,9.52,31.25,3.47c1.29,6.23,4.76,12.1,9.49,15.64c9.72,7.26,20.3,6.26,29.74,0.32
		c-0.74,18.39,19.8,37.37,37.36,24.06c10.33-7.83,20.66-15.66,30.99-23.49c6.93,13.16,25.02,20.45,39.71,7.11
		c22.94-20.81,47.36-39.42,73.47-56.08c13.36-8.53,14.05-23.34,8.09-34.18l25.34-28.04c8.37-9.26,9.99-22.98,1.97-33.05
		c-1.51-1.89-3.45-3.58-5.58-5.05c5.57-5.14,11.13-10.28,16.7-15.42C1667.78-134.2,1651.26-161.68,1631.09-160.94z M1556.39-94.96
		c0,19.52-15.83,35.35-35.35,35.35h-90.39c-19.52,0-35.35-15.83-35.35-35.35v-42.06c0-19.52,15.83-35.35,35.35-35.35h90.39
		c19.52,0,35.35,15.83,35.35,35.35V-94.96z"/>
</g>
<g>
	<path d="M160.23,852.97H91.32c-19.63,0-35.61,15.97-35.61,35.61v68.91c0,19.63,15.97,35.61,35.61,35.61h68.91
		c19.63,0,35.61-15.97,35.61-35.61v-68.91C195.84,868.94,179.87,852.97,160.23,852.97z M126.49,965.54
		c-23.44,0-42.51-19.07-42.51-42.51c0-23.44,19.07-42.51,42.51-42.51c23.44,0,42.51,19.07,42.51,42.51
		C169,946.47,149.93,965.54,126.49,965.54z M171.48,887.79c-5.59,0-10.12-4.53-10.12-10.12c0-5.59,4.53-10.12,10.12-10.12
		c5.59,0,10.12,4.53,10.12,10.12C181.6,883.26,177.06,887.79,171.48,887.79z"/>
	<path d="M279.29,876.62c12.04-19.93-12.12-48.83-34.46-34.47c-0.18,0.12-0.36,0.23-0.54,0.35c1.27-1.2,2.48-2.45,3.75-3.65
		c20.65-19.54-6.09-54.67-30.5-39.53c-15.3,9.48-30.38,19.29-45.38,29.23c12.36-11.99,24.85-23.85,37.61-35.42
		c21.8-19.78-5.98-52.61-30.5-39.53c-5.86,3.12-11.55,6.52-17.31,9.8c3.67-18.57-16.77-36.07-37.4-26.57
		c-55.51,25.55-106.48,59.6-151.99,100.35c-19.73,17.67,0.39,44.53,21.55,42.12c-15.21,18.23-29.99,36.81-44.02,56.01
		c-14.21,19.44,9.32,41.78,28.79,36.78c-4.4,5.83-8.85,11.62-13.17,17.52c-7.32,9.99-2.66,25.64,6.48,32.47
		c10.38,7.76,23.44,6.57,33.05-1.97c2.72-2.41,5.5-4.76,8.23-7.16c-4.53,5.31-9.21,10.49-13.7,15.83c-8.74,10.4-10.2,25.4,0,35.6
		c8.16,8.16,21.64,9.52,31.25,3.47c1.29,6.23,4.76,12.1,9.49,15.64c9.72,7.26,20.3,6.26,29.74,0.32
		c-0.74,18.39,19.8,37.37,37.36,24.06c10.33-7.83,20.66-15.66,30.99-23.49c6.93,13.16,25.02,20.45,39.72,7.11
		c22.94-20.81,47.36-39.42,73.47-56.08c13.36-8.53,14.05-23.34,8.09-34.18l25.34-28.04c8.37-9.26,9.99-22.98,1.97-33.05
		c-1.51-1.89-3.45-3.57-5.58-5.05c5.57-5.14,11.13-10.28,16.7-15.42C315.98,903.36,299.47,875.89,279.29,876.62z M212.08,957.49
		c0,28.59-23.26,51.84-51.85,51.84H91.32c-28.59,0-51.85-23.26-51.85-51.84v-68.91c0-28.59,23.26-51.85,51.85-51.85h68.91
		c28.59,0,51.85,23.26,51.85,51.85V957.49z"/>
	<path d="M126.49,895.81c-15.01,0-27.23,12.21-27.23,27.23c0,15.01,12.21,27.23,27.23,27.23c15.01,0,27.23-12.21,27.23-27.23
		C153.72,908.02,141.5,895.81,126.49,895.81z"/>
</g>
<path d="M822.24,714.56c12.04-19.93-12.12-48.83-34.46-34.47c-0.18,0.12-0.36,0.23-0.54,0.35c1.27-1.2,2.48-2.45,3.75-3.65
	c20.66-19.54-6.09-54.67-30.5-39.53c-15.3,9.48-30.38,19.29-45.38,29.23c12.36-11.99,24.85-23.85,37.61-35.42
	c21.8-19.78-5.98-52.61-30.5-39.53c-5.86,3.12-11.55,6.52-17.31,9.8c3.67-18.57-16.77-36.07-37.4-26.57
	c-55.51,25.55-106.48,59.6-151.99,100.35c-19.73,17.67,0.39,44.53,21.55,42.12c-15.21,18.23-29.99,36.81-44.02,56.01
	c-14.21,19.44,9.32,41.78,28.8,36.78c-4.4,5.83-8.85,11.62-13.17,17.52c-7.32,9.99-2.66,25.64,6.48,32.47
	c10.38,7.76,23.44,6.57,33.05-1.97c2.72-2.41,5.5-4.76,8.23-7.16c-4.53,5.31-9.21,10.49-13.7,15.83c-8.74,10.4-10.2,25.4,0,35.6
	c8.16,8.16,21.64,9.52,31.25,3.47c1.29,6.23,4.76,12.1,9.49,15.64c9.72,7.26,20.3,6.26,29.74,0.32
	c-0.74,18.39,19.8,37.37,37.36,24.06c10.33-7.83,20.66-15.66,30.99-23.49c6.93,13.16,25.02,20.45,39.72,7.11
	c22.94-20.81,47.36-39.42,73.47-56.08c13.36-8.53,14.05-23.34,8.09-34.18l25.34-28.04c8.37-9.26,9.99-22.98,1.97-33.05
	c-1.51-1.89-3.45-3.57-5.58-5.05c5.57-5.14,11.13-10.28,16.7-15.42C858.93,741.3,842.41,713.82,822.24,714.56z M747.57,741.38h-0.03
	c-1.51,0.15-3.02,0.22-4.53,0.23c-16.59,0-32.07-8.36-41.16-22.24v75.75c0,30.92-25.06,55.99-55.98,55.99
	c-30.92,0-55.99-25.06-55.99-55.99c0-30.92,25.06-55.98,55.99-55.98c1.17,0,2.31,0.1,3.46,0.18v27.59
	c-1.15-0.14-2.28-0.35-3.46-0.35c-15.78,0-28.57,12.79-28.57,28.57c0,15.78,12.79,28.57,28.57,28.57
	c15.78,0,29.72-12.44,29.72-28.22l0.28-128.65h26.39c2.49,23.67,21.57,42.16,45.31,43.89V741.38z"/>
</svg>
