<?xml version="1.0" encoding="utf-8"?>
<!-- Generator: Adobe Illustrator 26.0.0, SVG Export Plug-In . SVG Version: 6.00 Build 0)  -->
<svg version="1.1" id="Capa_1" xmlns="http://www.w3.org/2000/svg" xmlns:xlink="http://www.w3.org/1999/xlink" x="0px" y="0px"
	 viewBox="0 0 500 500" style="enable-background:new 0 0 500 500;" xml:space="preserve">
<style type="text/css">
	.st0{fill:url(#SVGID_1_);}
	.st1{fill:url(#SVGID_00000144316315806593794910000002391940047721232521_);}
	.st2{fill:url(#SVGID_00000136375320189028814630000017333938386563041720_);}
	.st3{fill:url(#SVGID_00000061435772749331024360000010046628116288629135_);}
	.st4{fill:url(#SVGID_00000125580398268756229240000016947364319995463808_);}
	.st5{fill:url(#SVGID_00000144328843313214105510000002022925114853622183_);}
	.st6{fill:url(#SVGID_00000059988742287931583270000003895342676070803344_);}
	.st7{fill:url(#SVGID_00000013191397540673563330000009893098665579771310_);}
	.st8{fill:url(#SVGID_00000001643222299446132700000018140885156933303964_);}
	.st9{fill:url(#SVGID_00000182524614559215046790000016643383806782553765_);}
	.st10{fill:url(#SVGID_00000080900589276186957820000015279999924010764189_);}
	.st11{fill:url(#SVGID_00000002370681318577572120000012713385979556788618_);}
	.st12{fill:url(#SVGID_00000083802641823257343970000012836062282767453089_);}
	.st13{fill:url(#SVGID_00000046302633376867960270000001246811282542514864_);}
	.st14{fill:url(#SVGID_00000122678927137927213680000008813491741139794338_);}
	.st15{fill:url(#SVGID_00000123441728094822282160000016395940742370189733_);}
	.st16{fill:url(#SVGID_00000005225011673701771010000003457579258386111412_);}
	.st17{fill:url(#SVGID_00000174603174576356602590000009941491268675191942_);}
	.st18{fill:url(#SVGID_00000014610390374956456270000015161426261334843795_);}
	.st19{fill:#EE1D52;}
	.st20{fill:#FFFFFF;}
	.st21{fill:#69C9D0;}
</style>
<linearGradient id="SVGID_1_" gradientUnits="userSpaceOnUse" x1="-423.3907" y1="182.0878" x2="-184.1376" y2="421.3409">
	<stop  offset="0" style="stop-color:#33CCFF"/>
	<stop  offset="1" style="stop-color:#337FFF"/>
</linearGradient>
<path class="st0" d="M-145.56,250.5c12.04-19.93-12.12-48.83-34.46-34.47c-0.18,0.12-0.36,0.23-0.54,0.35
	c1.27-1.2,2.48-2.45,3.75-3.65c20.66-19.54-6.09-54.67-30.5-39.53c-15.29,9.48-30.38,19.29-45.38,29.23
	c12.36-11.99,24.85-23.85,37.61-35.42c21.8-19.78-5.98-52.61-30.5-39.53c-5.86,3.12-11.55,6.52-17.31,9.8
	c3.67-18.57-16.77-36.07-37.4-26.57c-55.51,25.55-106.48,59.6-151.99,100.35c-19.73,17.67,0.39,44.53,21.55,42.12
	c-15.21,18.23-29.99,36.81-44.02,56.01c-14.21,19.44,9.32,41.78,28.79,36.78c-4.4,5.83-8.85,11.62-13.17,17.52
	c-7.32,9.99-2.66,25.64,6.48,32.47c10.38,7.76,23.44,6.57,33.05-1.97c2.72-2.41,5.5-4.76,8.23-7.16
	c-4.53,5.31-9.21,10.49-13.7,15.83c-8.74,10.4-10.2,25.4,0,35.6c8.16,8.16,21.64,9.52,31.25,3.47c1.29,6.23,4.76,12.1,9.49,15.64
	c9.72,7.26,20.3,6.26,29.74,0.32c-0.74,18.39,19.8,37.37,37.36,24.06c10.33-7.83,20.66-15.66,30.99-23.49
	c6.93,13.16,25.02,20.45,39.72,7.11c22.94-20.81,47.36-39.42,73.47-56.08c13.36-8.53,14.05-23.34,8.09-34.18l25.34-28.04
	c8.37-9.26,9.99-22.98,1.97-33.05c-1.51-1.89-3.45-3.57-5.58-5.05c5.57-5.14,11.13-10.28,16.7-15.42
	C-108.86,277.23-125.38,249.76-145.56,250.5z M-217.07,246.81c0,0.41-0.01,1.42-0.85,2.56c-3.75,5.05-7.81,9.57-12.83,13.35
	c-0.73,0.55-1.95,1.12-1.95,2.16c0,26.51-6.77,52.99-26.1,72.19c-24.61,24.45-61.53,31.1-94.3,22.05
	c-6.35-1.75-12.42-4.21-18.24-7.3c-1.93-1.05-3.82-2.14-5.68-3.37c-0.47-0.38-0.82-0.73-0.42-0.98c0.4-0.2,0.71-0.22,2.17,0
	c9.17,0.9,18.61-0.46,27.28-3.49c4.77-1.67,15.01-5.02,17.96-9.52c0.07-0.1,0.14-0.1,0.21-0.21c-1.2-0.28-2.39-0.28-3.58-0.49
	c-8.9-2.55-20.8-7.01-26.3-22.03c-0.35-0.88,0-1.33,0.91-1.16c7.33,0.57,9.96,0.17,12.52-0.39c-1.44-0.24-2.91-0.74-4.24-1.3
	c-11.22-4.27-19.41-15.21-20.91-27.04c-0.17-1.37-0.28-2.53-0.21-3.79c0.07-0.88,0.46-1.16,1.23-0.67
	c5.77,2.98,12.24,3.69,12.76,3.58c-1.44-1.12-2.77-2.35-4.07-3.58c-9.73-9.21-13.5-27.96-5.72-39.63c0.63-0.95,1.05-0.95,1.82-0.07
	c17.79,20.27,39.71,29.74,66.15,33.67c0.7,0.1,0.77,0,0.66-0.77c-0.69-4.66-0.78-9.22,0.35-13.82c1.17-4.77,3.45-9.28,6.54-13.09
	c2.99-3.69,6.74-6.74,10.95-8.94c4.2-2.19,8.84-3.53,13.57-3.83c4.86-0.32,9.79,0.46,14.3,2.3c3.44,1.4,6.48,3.3,9.33,5.71
	c0.6,0.49,1.12,1.09,1.68,1.72c0.35,0.35,0.77,0.49,1.33,0.35c6.76-1.69,13.11-4.08,19.25-7.37c0.28-0.14,0.51-0.21,0.86-0.07
	c0.28,0.21,0.18,0.56,0.04,0.84c-1.1,3.59-3.04,6.91-5.39,9.83c-1.54,1.91-5.37,6.64-7.98,7.08c5.5-0.92,11.14-2.32,16.24-4.63
	c0.65-0.3,0.66-0.42,0.66,0C-217.07,246.67-217.07,246.74-217.07,246.81z"/>
<g>
	
		<linearGradient id="SVGID_00000160185993278640194200000009785912536970412188_" gradientUnits="userSpaceOnUse" x1="224.2778" y1="231.6906" x2="259.9098" y2="267.3226">
		<stop  offset="0" style="stop-color:#FF0000"/>
		<stop  offset="1" style="stop-color:#850000"/>
	</linearGradient>
	<path style="fill:url(#SVGID_00000160185993278640194200000009785912536970412188_);" d="M273.97,247.31l-38.8-21.11
		c-1.59-0.91-7.03,0.24-7.03,2.07v41.16c0,1.81,5.4,2.96,6.99,2.1l40.53-20.05C277.3,250.59,275.59,248.24,273.97,247.31z"/>
	
		<linearGradient id="SVGID_00000061454657938223143960000003666308492147136153_" gradientUnits="userSpaceOnUse" x1="125.6768" y1="134.9731" x2="364.9302" y2="374.2265">
		<stop  offset="0" style="stop-color:#FF0000"/>
		<stop  offset="1" style="stop-color:#850000"/>
	</linearGradient>
	<path style="fill:url(#SVGID_00000061454657938223143960000003666308492147136153_);" d="M403.51,203.38
		c12.04-19.93-12.12-48.83-34.46-34.47c-0.18,0.12-0.36,0.23-0.54,0.35c1.27-1.2,2.48-2.45,3.75-3.65
		c20.66-19.54-6.09-54.67-30.5-39.53c-15.3,9.48-30.38,19.29-45.38,29.23c12.36-11.99,24.85-23.85,37.61-35.42
		c21.8-19.78-5.98-52.61-30.5-39.53c-5.86,3.12-11.55,6.52-17.31,9.8c3.67-18.57-16.77-36.07-37.4-26.57
		c-55.51,25.55-106.48,59.6-151.99,100.35c-19.73,17.67,0.39,44.53,21.55,42.12c-15.21,18.23-29.99,36.81-44.02,56.02
		c-14.21,19.44,9.32,41.77,28.79,36.78c-4.4,5.83-8.85,11.62-13.17,17.52c-7.32,9.99-2.66,25.64,6.48,32.47
		c10.38,7.76,23.44,6.57,33.05-1.97c2.72-2.42,5.5-4.76,8.23-7.16c-4.53,5.31-9.21,10.49-13.7,15.83c-8.74,10.4-10.2,25.4,0,35.6
		c8.16,8.16,21.64,9.52,31.25,3.47c1.29,6.23,4.76,12.1,9.49,15.64c9.72,7.26,20.3,6.26,29.74,0.32
		c-0.74,18.39,19.8,37.37,37.36,24.06c10.33-7.83,20.66-15.66,30.99-23.49c6.93,13.16,25.02,20.45,39.71,7.11
		c22.94-20.81,47.36-39.42,73.47-56.08c13.36-8.53,14.05-23.34,8.09-34.18l25.34-28.04c8.37-9.26,9.99-22.98,1.97-33.05
		c-1.51-1.89-3.45-3.58-5.58-5.05c5.57-5.14,11.13-10.28,16.7-15.42C440.2,230.12,423.69,202.64,403.51,203.38z M328.81,269.37
		c0,19.52-15.83,35.35-35.35,35.35h-90.39c-19.52,0-35.35-15.83-35.35-35.35V227.3c0-19.52,15.83-35.35,35.35-35.35h90.39
		c19.52,0,35.35,15.83,35.35,35.35V269.37z"/>
</g>
<g>
	
		<linearGradient id="SVGID_00000154393166747525880260000010102732967614031018_" gradientUnits="userSpaceOnUse" x1="-625.7152" y1="-47.2627" x2="-587.226" y2="-8.7734">
		<stop  offset="1.104800e-03" style="stop-color:#FBE18A"/>
		<stop  offset="0.2094" style="stop-color:#FCBB45"/>
		<stop  offset="0.3765" style="stop-color:#F75274"/>
		<stop  offset="0.5238" style="stop-color:#D53692"/>
		<stop  offset="0.7394" style="stop-color:#8F39CE"/>
		<stop  offset="1" style="stop-color:#5B4FE9"/>
	</linearGradient>
	<path style="fill:url(#SVGID_00000154393166747525880260000010102732967614031018_);" d="M-606.47-55.25
		c-15.01,0-27.23,12.21-27.23,27.23c0,15.01,12.21,27.23,27.23,27.23c15.01,0,27.23-12.21,27.23-27.23
		C-579.24-43.03-591.46-55.25-606.47-55.25z"/>
	
		<linearGradient id="SVGID_00000031196806511201110210000004357124554367446932_" gradientUnits="userSpaceOnUse" x1="-666.8032" y1="-87.6412" x2="-547.5563" y2="31.6056">
		<stop  offset="1.104800e-03" style="stop-color:#FBE18A"/>
		<stop  offset="0.2094" style="stop-color:#FCBB45"/>
		<stop  offset="0.3765" style="stop-color:#F75274"/>
		<stop  offset="0.5238" style="stop-color:#D53692"/>
		<stop  offset="0.7394" style="stop-color:#8F39CE"/>
		<stop  offset="1" style="stop-color:#5B4FE9"/>
	</linearGradient>
	<path style="fill:url(#SVGID_00000031196806511201110210000004357124554367446932_);" d="M-572.72-98.08h-68.91
		c-19.63,0-35.61,15.97-35.61,35.61V6.44c0,19.64,15.97,35.61,35.61,35.61h68.91c19.64,0,35.61-15.97,35.61-35.61v-68.91
		C-537.12-82.11-553.09-98.08-572.72-98.08z M-606.47,14.49c-23.44,0-42.51-19.07-42.51-42.51c0-23.44,19.07-42.51,42.51-42.51
		c23.44,0,42.51,19.07,42.51,42.51C-563.96-4.58-583.03,14.49-606.47,14.49z M-561.48-63.26c-5.59,0-10.12-4.53-10.12-10.12
		c0-5.59,4.53-10.12,10.12-10.12c5.59,0,10.12,4.53,10.12,10.12C-551.36-67.79-555.89-63.26-561.48-63.26z"/>
	
		<linearGradient id="SVGID_00000078039368934508382110000018004030192789517197_" gradientUnits="userSpaceOnUse" x1="-731.5017" y1="-142.8388" x2="-492.2484" y2="96.4145">
		<stop  offset="1.104800e-03" style="stop-color:#FBE18A"/>
		<stop  offset="0.2094" style="stop-color:#FCBB45"/>
		<stop  offset="0.3765" style="stop-color:#F75274"/>
		<stop  offset="0.5238" style="stop-color:#D53692"/>
		<stop  offset="0.7394" style="stop-color:#8F39CE"/>
		<stop  offset="1" style="stop-color:#5B4FE9"/>
	</linearGradient>
	<path style="fill:url(#SVGID_00000078039368934508382110000018004030192789517197_);" d="M-453.67-74.43
		c12.04-19.93-12.12-48.83-34.46-34.47c-0.18,0.12-0.36,0.23-0.54,0.35c1.27-1.2,2.48-2.45,3.75-3.65
		c20.66-19.54-6.09-54.67-30.5-39.53c-15.3,9.48-30.38,19.29-45.38,29.23c12.36-11.99,24.85-23.85,37.61-35.42
		c21.8-19.78-5.98-52.61-30.5-39.53c-5.86,3.12-11.55,6.52-17.31,9.8c3.67-18.57-16.77-36.07-37.4-26.57
		c-55.51,25.55-106.48,59.6-151.99,100.35c-19.73,17.67,0.39,44.53,21.55,42.12c-15.21,18.23-29.99,36.81-44.02,56.01
		c-14.21,19.44,9.32,41.78,28.79,36.78c-4.4,5.83-8.85,11.62-13.17,17.52c-7.32,9.99-2.66,25.64,6.48,32.47
		c10.38,7.76,23.44,6.57,33.05-1.97c2.72-2.41,5.5-4.76,8.23-7.16c-4.53,5.31-9.21,10.49-13.7,15.83c-8.74,10.4-10.2,25.4,0,35.6
		c8.16,8.16,21.64,9.52,31.25,3.47c1.29,6.23,4.76,12.1,9.49,15.64c9.72,7.26,20.3,6.26,29.74,0.32
		c-0.74,18.39,19.8,37.37,37.36,24.06c10.33-7.83,20.66-15.66,30.99-23.49c6.93,13.16,25.02,20.45,39.71,7.11
		c22.94-20.81,47.36-39.42,73.47-56.08c13.36-8.53,14.05-23.34,8.09-34.18l25.34-28.04c8.37-9.26,9.99-22.98,1.97-33.05
		c-1.51-1.89-3.45-3.57-5.58-5.05c5.57-5.14,11.13-10.28,16.7-15.42C-416.97-47.69-433.49-75.17-453.67-74.43z M-520.88,6.44
		c0,28.59-23.26,51.85-51.85,51.85h-68.91c-28.59,0-51.84-23.26-51.84-51.85v-68.91c0-28.59,23.26-51.85,51.84-51.85h68.91
		c28.59,0,51.85,23.26,51.85,51.85V6.44z"/>
</g>
<g>
	
		<linearGradient id="SVGID_00000096780928022624015780000017615641805579239064_" gradientUnits="userSpaceOnUse" x1="1025.2976" y1="546.3314" x2="1264.5507" y2="785.5843">
		<stop  offset="0" style="stop-color:#22004A"/>
		<stop  offset="0.9565" style="stop-color:#020003"/>
		<stop  offset="1" style="stop-color:#000000"/>
	</linearGradient>
	<path style="fill:url(#SVGID_00000096780928022624015780000017615641805579239064_);" d="M1185.19,705.48
		c-0.18,0.31-0.36,0.62-0.55,0.92C1184.83,706.1,1185,705.79,1185.19,705.48z"/>
	
		<linearGradient id="SVGID_00000029014210467194109530000001586016739337109398_" gradientUnits="userSpaceOnUse" x1="1100.2794" y1="471.3492" x2="1339.5327" y2="710.6025">
		<stop  offset="0" style="stop-color:#22004A"/>
		<stop  offset="0.9565" style="stop-color:#020003"/>
		<stop  offset="1" style="stop-color:#000000"/>
	</linearGradient>
	<path style="fill:url(#SVGID_00000029014210467194109530000001586016739337109398_);" d="M1232.52,602.91
		c-0.7-0.21-1.38-0.46-2.07-0.7C1231.14,602.45,1231.82,602.7,1232.52,602.91z"/>
	
		<linearGradient id="SVGID_00000125604998550354347670000005830284575485656241_" gradientUnits="userSpaceOnUse" x1="1037.9868" y1="533.6419" x2="1277.24" y2="772.8951">
		<stop  offset="0" style="stop-color:#22004A"/>
		<stop  offset="0.9565" style="stop-color:#020003"/>
		<stop  offset="1" style="stop-color:#000000"/>
	</linearGradient>
	<polygon style="fill:url(#SVGID_00000125604998550354347670000005830284575485656241_);" points="1144.11,651.96 1144.11,651.96 
		1144.11,627.57 1144.11,627.57 	"/>
	
		<linearGradient id="SVGID_00000096041593081242881560000011457254004427749539_" gradientUnits="userSpaceOnUse" x1="1030.6409" y1="540.9878" x2="1269.8942" y2="780.2411">
		<stop  offset="0" style="stop-color:#22004A"/>
		<stop  offset="0.9565" style="stop-color:#020003"/>
		<stop  offset="1" style="stop-color:#000000"/>
	</linearGradient>
	<path style="fill:url(#SVGID_00000096041593081242881560000011457254004427749539_);" d="M1140.25,651.05
		c0.38,0.06,0.76,0.14,1.14,0.22C1141.01,651.2,1140.63,651.11,1140.25,651.05z"/>
	
		<linearGradient id="SVGID_00000159439333844859502700000012754406924103245470_" gradientUnits="userSpaceOnUse" x1="1099.3293" y1="472.2993" x2="1338.5826" y2="711.5526">
		<stop  offset="0" style="stop-color:#22004A"/>
		<stop  offset="0.9565" style="stop-color:#020003"/>
		<stop  offset="1" style="stop-color:#000000"/>
	</linearGradient>
	<path style="fill:url(#SVGID_00000159439333844859502700000012754406924103245470_);" d="M1229.36,601.83
		c-0.59-0.22-1.15-0.49-1.73-0.74C1228.2,601.34,1228.77,601.61,1229.36,601.83z"/>
	
		<linearGradient id="SVGID_00000182504719105163187860000018351108518206111406_" gradientUnits="userSpaceOnUse" x1="1031.4956" y1="540.1331" x2="1270.7489" y2="779.3864">
		<stop  offset="0" style="stop-color:#22004A"/>
		<stop  offset="0.9565" style="stop-color:#020003"/>
		<stop  offset="1" style="stop-color:#000000"/>
	</linearGradient>
	<path style="fill:url(#SVGID_00000182504719105163187860000018351108518206111406_);" d="M1142.2,651.43
		c0.56,0.13,1.11,0.29,1.66,0.46C1143.31,651.72,1142.76,651.57,1142.2,651.43z"/>
	
		<linearGradient id="SVGID_00000020364271465380671000000010322737350014897283_" gradientUnits="userSpaceOnUse" x1="1097.4575" y1="474.1712" x2="1336.7107" y2="713.4244">
		<stop  offset="0" style="stop-color:#22004A"/>
		<stop  offset="0.9565" style="stop-color:#020003"/>
		<stop  offset="1" style="stop-color:#000000"/>
	</linearGradient>
	<path style="fill:url(#SVGID_00000020364271465380671000000010322737350014897283_);" d="M1220.52,597.19
		c-0.1-0.07-0.2-0.15-0.3-0.22C1220.32,597.04,1220.41,597.12,1220.52,597.19z"/>
	
		<linearGradient id="SVGID_00000176750885255444019060000009581739807335876255_" gradientUnits="userSpaceOnUse" x1="1014.1209" y1="557.5075" x2="1253.3744" y2="796.7609">
		<stop  offset="0" style="stop-color:#22004A"/>
		<stop  offset="0.9565" style="stop-color:#020003"/>
		<stop  offset="1" style="stop-color:#000000"/>
	</linearGradient>
	<path style="fill:url(#SVGID_00000176750885255444019060000009581739807335876255_);" d="M1145.21,710.05
		c11.61,0,21.44-7.63,24.75-18.15C1166.65,702.42,1156.82,710.05,1145.21,710.05z"/>
	
		<linearGradient id="SVGID_00000042735166387347604050000014612452749571228347_" gradientUnits="userSpaceOnUse" x1="1037.9948" y1="533.6339" x2="1277.248" y2="772.8871">
		<stop  offset="0" style="stop-color:#22004A"/>
		<stop  offset="0.9565" style="stop-color:#020003"/>
		<stop  offset="1" style="stop-color:#000000"/>
	</linearGradient>
	<path style="fill:url(#SVGID_00000042735166387347604050000014612452749571228347_);" d="M1315.83,602.04
		c12.04-19.93-12.12-48.83-34.46-34.47c-0.18,0.12-0.36,0.23-0.54,0.35c1.27-1.2,2.48-2.45,3.75-3.65
		c20.66-19.54-6.09-54.67-30.5-39.53c-15.29,9.48-30.38,19.29-45.38,29.23c12.36-11.99,24.85-23.85,37.61-35.42
		c21.8-19.78-5.98-52.61-30.5-39.53c-5.86,3.12-11.55,6.52-17.31,9.8c3.67-18.57-16.77-36.07-37.4-26.57
		c-55.51,25.55-106.48,59.6-151.99,100.35c-19.73,17.67,0.39,44.53,21.55,42.12c-15.21,18.23-29.99,36.81-44.02,56.01
		c-14.21,19.44,9.32,41.78,28.79,36.78c-4.4,5.83-8.85,11.62-13.17,17.52c-7.32,9.99-2.66,25.64,6.48,32.47
		c10.38,7.76,23.44,6.57,33.05-1.97c2.72-2.41,5.5-4.76,8.23-7.16c-4.53,5.31-9.21,10.49-13.7,15.83c-8.74,10.4-10.2,25.4,0,35.6
		c8.16,8.16,21.64,9.52,31.25,3.47c1.29,6.23,4.76,12.1,9.49,15.64c9.72,7.26,20.3,6.26,29.74,0.32
		c-0.74,18.39,19.8,37.37,37.36,24.06c10.33-7.83,20.66-15.66,30.99-23.49c6.93,13.16,25.02,20.45,39.71,7.11
		c22.94-20.81,47.36-39.42,73.47-56.08c13.36-8.53,14.05-23.34,8.09-34.18l25.34-28.04c8.37-9.26,9.99-22.98,1.97-33.05
		c-1.51-1.89-3.45-3.57-5.58-5.05c5.57-5.14,11.13-10.28,16.7-15.42C1352.52,628.78,1336.01,601.3,1315.83,602.04z M1244.74,635.33
		c-15.94,0-30.7-5.06-42.74-13.67v62.56c0,31.3-25.38,56.66-56.7,56.66c-15.88,0-30.24-6.53-40.53-17.05c0,0,0,0,0,0c0,0,0,0,0-0.01
		c-15.16-10.17-25.13-27.46-25.13-47.08c0-31.29,25.38-56.66,56.7-56.66c2.6,0,5.2,0.17,7.78,0.53v6.95c3-0.06,6,0.11,8.97,0.52
		v31.34c-2.54-0.81-5.2-1.22-7.87-1.21c-14.32,0-25.93,11.6-25.93,25.92c-0.01,5.67,1.85,11.18,5.29,15.69
		c-8.46-4.27-14.26-13.03-14.26-23.15c0-14.31,11.61-25.92,25.93-25.92c0,0,0,0,0,0c-14.32,0-25.93,11.6-25.93,25.92
		c0,10.12,5.8,18.88,14.26,23.15c3.51,1.77,7.47,2.76,11.67,2.76c14.29,0,25.88-11.56,25.93-25.83V554.31h30.85v3.94
		c0.11,1.18,0.27,2.35,0.47,3.52h8.51v3.94c0.88,9.6,4.92,18.29,11.07,25.02c0.43,0.46,0.88,0.9,1.33,1.34
		c-0.44-0.45-0.9-0.88-1.33-1.34c6.81,4.25,14.67,6.49,22.69,6.48v6.53c2.95,0.63,5.96,0.94,8.98,0.94V635.33z"/>
	
		<linearGradient id="SVGID_00000181773461167762620520000017143338590198823580_" gradientUnits="userSpaceOnUse" x1="1029.6666" y1="541.962" x2="1268.9199" y2="781.2153">
		<stop  offset="0" style="stop-color:#22004A"/>
		<stop  offset="0.9565" style="stop-color:#020003"/>
		<stop  offset="1" style="stop-color:#000000"/>
	</linearGradient>
	<path style="fill:url(#SVGID_00000181773461167762620520000017143338590198823580_);" d="M1138.26,650.82
		c0.2,0.02,0.4,0.05,0.6,0.07C1138.66,650.87,1138.46,650.84,1138.26,650.82z"/>
	
		<linearGradient id="SVGID_00000118357242559726468150000014965307482303022768_" gradientUnits="userSpaceOnUse" x1="1198.8959" y1="618.556" x2="1205.0975" y2="624.7576">
		<stop  offset="0" style="stop-color:#22004A"/>
		<stop  offset="0.9565" style="stop-color:#020003"/>
		<stop  offset="1" style="stop-color:#000000"/>
	</linearGradient>
	<polygon style="fill:url(#SVGID_00000118357242559726468150000014965307482303022768_);" points="1202,621.66 1202,621.66 
		1202,621.66 	"/>
	
		<linearGradient id="SVGID_00000011006642253234645490000013795894210346584224_" gradientUnits="userSpaceOnUse" x1="1098.5497" y1="473.079" x2="1337.803" y2="712.3322">
		<stop  offset="0" style="stop-color:#22004A"/>
		<stop  offset="0.9565" style="stop-color:#020003"/>
		<stop  offset="1" style="stop-color:#000000"/>
	</linearGradient>
	<path style="fill:url(#SVGID_00000011006642253234645490000013795894210346584224_);" d="M1226.29,600.51
		c-0.43-0.21-0.85-0.45-1.27-0.67C1225.44,600.07,1225.86,600.31,1226.29,600.51z"/>
	
		<linearGradient id="SVGID_00000135661543193777481450000009943029048844512173_" gradientUnits="userSpaceOnUse" x1="1097.9271" y1="473.7016" x2="1337.1803" y2="712.9548">
		<stop  offset="0" style="stop-color:#22004A"/>
		<stop  offset="0.9565" style="stop-color:#020003"/>
		<stop  offset="1" style="stop-color:#000000"/>
	</linearGradient>
	<path style="fill:url(#SVGID_00000135661543193777481450000009943029048844512173_);" d="M1223.33,598.96
		c-0.27-0.15-0.52-0.33-0.78-0.49C1222.82,598.63,1223.07,598.81,1223.33,598.96z"/>
	<path class="st19" d="M1144.11,651.96L1144.11,651.96c-0.08-0.03-0.17-0.04-0.25-0.07c-0.55-0.17-1.1-0.32-1.66-0.46
		c-0.27-0.06-0.54-0.1-0.81-0.16c-0.38-0.08-0.76-0.16-1.14-0.22c-0.46-0.07-0.92-0.11-1.38-0.16c-0.2-0.02-0.4-0.05-0.6-0.07
		c-0.67-0.05-1.34-0.08-2.03-0.08c-14.32,0-25.93,11.6-25.93,25.92c0,10.12,5.8,18.88,14.26,23.15c-3.44-4.51-5.3-10.02-5.29-15.69
		c0-14.31,11.61-25.92,25.93-25.92c2.67,0,5.32,0.41,7.87,1.21v-31.34c-2.97-0.41-5.97-0.58-8.97-0.52L1144.11,651.96
		C1144.11,651.96,1144.11,651.96,1144.11,651.96z"/>
	<path class="st19" d="M1235.76,627.86c-15.94,0-30.69-5.06-42.74-13.67v62.56v0c0,10.49-2.86,20.31-7.83,28.73
		c-0.18,0.31-0.36,0.62-0.55,0.92c-9.98,16.2-27.88,27.01-48.31,27.01c-11.68,0-22.54-3.53-31.56-9.58
		c10.29,10.52,24.65,17.05,40.53,17.05c31.31,0,56.7-25.37,56.7-56.66v-62.56c0,0,0,0,0,0h0v0c12.05,8.61,26.8,13.67,42.74,13.67
		v-30.66c-3.02,0-6.02-0.31-8.98-0.94V627.86z"/>
	<path class="st19" d="M1213.07,590.73c-6.16-6.72-10.2-15.41-11.07-25.02v-3.94h-8.51
		C1195.63,573.98,1202.93,584.41,1213.07,590.73z"/>
	<path class="st20" d="M1193.02,676.75L1193.02,676.75c0,10.49-2.86,20.31-7.83,28.73C1190.16,697.06,1193.02,687.24,1193.02,676.75
		z"/>
	<path class="st20" d="M1144.11,651.96c-0.08-0.03-0.17-0.04-0.25-0.07C1143.94,651.91,1144.02,651.93,1144.11,651.96
		L1144.11,651.96z"/>
	<path class="st20" d="M1184.64,706.41c-9.98,16.2-27.88,27.01-48.31,27.01c-11.68,0-22.54-3.53-31.56-9.58c0,0,0,0,0,0
		c9.02,6.05,19.88,9.58,31.56,9.58C1156.76,733.42,1174.66,722.61,1184.64,706.41z"/>
	<path class="st20" d="M1141.39,651.28c0.27,0.05,0.54,0.1,0.81,0.16C1141.93,651.37,1141.66,651.33,1141.39,651.28z"/>
	<path class="st20" d="M1136.24,650.74C1136.24,650.74,1136.24,650.74,1136.24,650.74c0.68,0,1.36,0.03,2.03,0.08
		C1137.59,650.77,1136.91,650.74,1136.24,650.74z"/>
	<path class="st20" d="M1138.86,650.89c0.46,0.05,0.93,0.09,1.38,0.16C1139.79,650.98,1139.33,650.94,1138.86,650.89z"/>
	<path class="st21" d="M1220.22,596.97c0.1,0.07,0.2,0.15,0.3,0.22c0.66,0.45,1.35,0.87,2.04,1.28c0.26,0.16,0.51,0.33,0.78,0.49
		c0.55,0.32,1.12,0.59,1.68,0.89c0.43,0.22,0.84,0.46,1.27,0.67c0.44,0.21,0.89,0.38,1.34,0.58c0.57,0.25,1.14,0.52,1.73,0.74
		c0.36,0.14,0.73,0.25,1.1,0.37c0.69,0.24,1.37,0.49,2.07,0.7c1.06,0.32,2.15,0.59,3.24,0.83v-6.53
		c-8.02,0.01-15.89-2.23-22.69-6.48c0.43,0.47,0.88,0.9,1.33,1.34C1216.19,593.87,1218.13,595.52,1220.22,596.97z"/>
	<path class="st21" d="M1144.11,627.57L1144.11,627.57C1144.11,627.57,1144.11,627.57,1144.11,627.57l0-6.95
		c-2.58-0.35-5.18-0.53-7.78-0.53c-31.31,0-56.7,25.37-56.7,56.66c0,19.62,9.97,36.91,25.13,47.08
		c-10-10.21-16.15-24.19-16.15-39.61C1088.61,653.32,1113.35,628.2,1144.11,627.57z"/>
	<path class="st21" d="M1145.21,710.05c11.61,0,21.44-7.63,24.75-18.15c0.76-2.43,1.18-5.01,1.19-7.68V561.77h22.34
		c-0.2-1.17-0.36-2.34-0.47-3.52v-3.94h-30.85v122.44c-0.05,14.27-11.64,25.83-25.93,25.83c-4.2,0-8.16-0.99-11.67-2.76
		C1129.31,706.03,1136.79,710.05,1145.21,710.05z"/>
	<path class="st21" d="M1235.76,603.73c-1.1-0.23-2.18-0.51-3.24-0.83C1233.59,603.22,1234.67,603.5,1235.76,603.73z"/>
	<path class="st21" d="M1088.61,684.21c0-30.89,24.74-56.01,55.5-56.65l0,0C1113.35,628.2,1088.61,653.32,1088.61,684.21
		c0,15.42,6.16,29.4,16.15,39.61c0,0,0,0,0.01,0C1094.77,713.62,1088.61,699.64,1088.61,684.21z"/>
	<path class="st21" d="M1227.63,601.09c-0.45-0.19-0.9-0.37-1.34-0.58C1226.73,600.72,1227.18,600.9,1227.63,601.09z"/>
	<path class="st21" d="M1222.56,598.48c-0.69-0.42-1.38-0.83-2.04-1.28C1221.18,597.65,1221.87,598.06,1222.56,598.48z"/>
	<path class="st21" d="M1225.02,599.85c-0.56-0.29-1.13-0.57-1.68-0.89C1223.88,599.28,1224.45,599.56,1225.02,599.85z"/>
	<path class="st21" d="M1230.45,602.21c-0.36-0.13-0.74-0.24-1.1-0.37C1229.72,601.97,1230.09,602.08,1230.45,602.21z"/>
	<path class="st21" d="M1220.22,596.97c-2.09-1.46-4.03-3.1-5.82-4.9C1216.2,593.88,1218.14,595.52,1220.22,596.97z"/>
</g>
<path d="M403.51-364.45c12.04-19.93-12.12-48.83-34.46-34.47c-0.18,0.12-0.36,0.23-0.54,0.35c1.27-1.2,2.48-2.45,3.75-3.65
	c20.66-19.54-6.09-54.67-30.5-39.53c-15.3,9.48-30.38,19.29-45.38,29.23c12.36-11.99,24.85-23.85,37.61-35.42
	c21.8-19.78-5.98-52.61-30.5-39.53c-5.86,3.12-11.55,6.52-17.31,9.8c3.67-18.57-16.77-36.07-37.4-26.57
	c-55.51,25.55-106.48,59.6-151.99,100.35c-19.73,17.67,0.39,44.53,21.55,42.12c-15.21,18.23-29.99,36.81-44.02,56.01
	c-14.21,19.44,9.32,41.78,28.8,36.78c-4.4,5.83-8.85,11.62-13.17,17.52c-7.32,9.99-2.66,25.64,6.48,32.47
	c10.38,7.76,23.44,6.57,33.05-1.97c2.72-2.41,5.5-4.76,8.23-7.16c-4.53,5.31-9.21,10.49-13.7,15.83c-8.74,10.4-10.2,25.4,0,35.6
	c8.16,8.16,21.64,9.52,31.25,3.47c1.29,6.23,4.76,12.1,9.49,15.64c9.72,7.26,20.3,6.26,29.74,0.32
	c-0.74,18.39,19.8,37.37,37.36,24.06c10.33-7.83,20.66-15.66,30.99-23.49c6.93,13.16,25.02,20.45,39.71,7.11
	c22.94-20.81,47.36-39.42,73.47-56.08c13.36-8.53,14.05-23.34,8.09-34.18l25.34-28.04c8.37-9.26,9.99-22.98,1.97-33.05
	c-1.51-1.89-3.45-3.57-5.58-5.05c5.57-5.14,11.13-10.28,16.7-15.42C440.2-337.71,423.69-365.19,403.51-364.45z M332-368.13
	c0,0.41-0.01,1.42-0.85,2.56c-3.75,5.05-7.81,9.57-12.83,13.35c-0.73,0.55-1.95,1.12-1.95,2.16c0,26.51-6.77,52.99-26.1,72.19
	c-24.61,24.45-61.53,31.1-94.3,22.05c-6.35-1.75-12.42-4.21-18.24-7.3c-1.93-1.05-3.82-2.14-5.68-3.37
	c-0.47-0.38-0.82-0.73-0.42-0.98c0.4-0.2,0.71-0.22,2.17,0c9.17,0.9,18.61-0.46,27.28-3.49c4.77-1.67,15.01-5.02,17.96-9.52
	c0.07-0.1,0.14-0.1,0.21-0.21c-1.2-0.28-2.39-0.28-3.58-0.49c-8.9-2.55-20.8-7.01-26.3-22.03c-0.35-0.88,0-1.33,0.91-1.16
	c7.33,0.57,9.96,0.17,12.52-0.39c-1.44-0.24-2.91-0.74-4.24-1.3c-11.22-4.27-19.41-15.21-20.91-27.04
	c-0.17-1.37-0.28-2.53-0.21-3.79c0.07-0.88,0.46-1.16,1.23-0.67c5.77,2.98,12.24,3.68,12.76,3.58c-1.44-1.12-2.77-2.35-4.07-3.58
	c-9.73-9.21-13.5-27.96-5.72-39.63c0.63-0.95,1.05-0.95,1.82-0.07c17.79,20.27,39.71,29.74,66.15,33.67c0.7,0.1,0.77,0,0.66-0.77
	c-0.69-4.66-0.78-9.22,0.35-13.82c1.17-4.77,3.45-9.28,6.54-13.09c2.99-3.69,6.74-6.74,10.95-8.94c4.2-2.19,8.84-3.53,13.57-3.83
	c4.86-0.32,9.79,0.46,14.3,2.3c3.44,1.4,6.48,3.3,9.33,5.71c0.6,0.49,1.12,1.09,1.68,1.72c0.35,0.35,0.77,0.49,1.33,0.35
	c6.76-1.69,13.11-4.08,19.25-7.37c0.28-0.14,0.51-0.21,0.86-0.07c0.28,0.21,0.18,0.56,0.04,0.84c-1.1,3.59-3.04,6.91-5.39,9.83
	c-1.54,1.91-5.37,6.64-7.98,7.08c5.5-0.92,11.14-2.32,16.24-4.63c0.65-0.3,0.66-0.42,0.66,0C332-368.27,332-368.2,332-368.13z"/>
<g>
	<path d="M1501.54-117.01l-38.8-21.11c-1.59-0.91-7.03,0.24-7.03,2.07v41.16c0,1.81,5.4,2.96,6.99,2.1l40.53-20.05
		C1504.88-113.73,1503.17-116.08,1501.54-117.01z"/>
	<path d="M1631.09-160.94c12.04-19.93-12.12-48.83-34.46-34.47c-0.18,0.12-0.36,0.23-0.54,0.35c1.27-1.2,2.48-2.45,3.75-3.65
		c20.65-19.54-6.09-54.67-30.5-39.53c-15.3,9.48-30.38,19.29-45.38,29.23c12.36-11.99,24.85-23.85,37.61-35.42
		c21.8-19.78-5.98-52.61-30.5-39.53c-5.86,3.12-11.55,6.52-17.31,9.8c3.67-18.57-16.77-36.07-37.4-26.57
		c-55.51,25.55-106.48,59.6-151.99,100.35c-19.73,17.67,0.39,44.53,21.55,42.12c-15.21,18.23-29.99,36.81-44.02,56.02
		c-14.21,19.44,9.32,41.77,28.8,36.78c-4.4,5.83-8.85,11.62-13.17,17.52c-7.32,9.99-2.66,25.64,6.48,32.47
		c10.38,7.76,23.44,6.57,33.05-1.97c2.72-2.42,5.5-4.76,8.23-7.16c-4.53,5.31-9.21,10.49-13.7,15.83c-8.74,10.4-10.2,25.4,0,35.6
		c8.16,8.16,21.64,9.52,31.25,3.47c1.29,6.23,4.76,12.1,9.49,15.64c9.72,7.26,20.3,6.26,29.74,0.32
		c-0.74,18.39,19.8,37.37,37.36,24.06c10.33-7.83,20.66-15.66,30.99-23.49c6.93,13.16,25.02,20.45,39.71,7.11
		c22.94-20.81,47.36-39.42,73.47-56.08c13.36-8.53,14.05-23.34,8.09-34.18l25.34-28.04c8.37-9.26,9.99-22.98,1.97-33.05
		c-1.51-1.89-3.45-3.58-5.58-5.05c5.57-5.14,11.13-10.28,16.7-15.42C1667.78-134.2,1651.26-161.68,1631.09-160.94z M1556.39-94.96
		c0,19.52-15.83,35.35-35.35,35.35h-90.39c-19.52,0-35.35-15.83-35.35-35.35v-42.06c0-19.52,15.83-35.35,35.35-35.35h90.39
		c19.52,0,35.35,15.83,35.35,35.35V-94.96z"/>
</g>
<g>
	<path d="M160.23,852.97H91.32c-19.63,0-35.61,15.97-35.61,35.61v68.91c0,19.63,15.97,35.61,35.61,35.61h68.91
		c19.63,0,35.61-15.97,35.61-35.61v-68.91C195.84,868.94,179.87,852.97,160.23,852.97z M126.49,965.54
		c-23.44,0-42.51-19.07-42.51-42.51c0-23.44,19.07-42.51,42.51-42.51c23.44,0,42.51,19.07,42.51,42.51
		C169,946.47,149.93,965.54,126.49,965.54z M171.48,887.79c-5.59,0-10.12-4.53-10.12-10.12c0-5.59,4.53-10.12,10.12-10.12
		c5.59,0,10.12,4.53,10.12,10.12C181.6,883.26,177.06,887.79,171.48,887.79z"/>
	<path d="M279.29,876.62c12.04-19.93-12.12-48.83-34.46-34.47c-0.18,0.12-0.36,0.23-0.54,0.35c1.27-1.2,2.48-2.45,3.75-3.65
		c20.65-19.54-6.09-54.67-30.5-39.53c-15.3,9.48-30.38,19.29-45.38,29.23c12.36-11.99,24.85-23.85,37.61-35.42
		c21.8-19.78-5.98-52.61-30.5-39.53c-5.86,3.12-11.55,6.52-17.31,9.8c3.67-18.57-16.77-36.07-37.4-26.57
		c-55.51,25.55-106.48,59.6-151.99,100.35c-19.73,17.67,0.39,44.53,21.55,42.12c-15.21,18.23-29.99,36.81-44.02,56.01
		c-14.21,19.44,9.32,41.78,28.79,36.78c-4.4,5.83-8.85,11.62-13.17,17.52c-7.32,9.99-2.66,25.64,6.48,32.47
		c10.38,7.76,23.44,6.57,33.05-1.97c2.72-2.41,5.5-4.76,8.23-7.16c-4.53,5.31-9.21,10.49-13.7,15.83c-8.74,10.4-10.2,25.4,0,35.6
		c8.16,8.16,21.64,9.52,31.25,3.47c1.29,6.23,4.76,12.1,9.49,15.64c9.72,7.26,20.3,6.26,29.74,0.32
		c-0.74,18.39,19.8,37.37,37.36,24.06c10.33-7.83,20.66-15.66,30.99-23.49c6.93,13.16,25.02,20.45,39.72,7.11
		c22.94-20.81,47.36-39.42,73.47-56.08c13.36-8.53,14.05-23.34,8.09-34.18l25.34-28.04c8.37-9.26,9.99-22.98,1.97-33.05
		c-1.51-1.89-3.45-3.57-5.58-5.05c5.57-5.14,11.13-10.28,16.7-15.42C315.98,903.36,299.47,875.89,279.29,876.62z M212.08,957.49
		c0,28.59-23.26,51.84-51.85,51.84H91.32c-28.59,0-51.85-23.26-51.85-51.84v-68.91c0-28.59,23.26-51.85,51.85-51.85h68.91
		c28.59,0,51.85,23.26,51.85,51.85V957.49z"/>
	<path d="M126.49,895.81c-15.01,0-27.23,12.21-27.23,27.23c0,15.01,12.21,27.23,27.23,27.23c15.01,0,27.23-12.21,27.23-27.23
		C153.72,908.02,141.5,895.81,126.49,895.81z"/>
</g>
<path d="M1065.78-72.21c12.04-19.93-12.12-48.83-34.46-34.47c-0.18,0.12-0.36,0.23-0.54,0.35c1.27-1.2,2.48-2.45,3.75-3.65
	c20.66-19.54-6.09-54.67-30.5-39.53c-15.3,9.48-30.38,19.29-45.38,29.23c12.36-11.99,24.85-23.85,37.61-35.42
	c21.8-19.78-5.98-52.61-30.5-39.53c-5.86,3.12-11.55,6.52-17.31,9.8c3.67-18.57-16.77-36.07-37.4-26.57
	c-55.51,25.55-106.48,59.6-151.99,100.35c-19.73,17.67,0.39,44.53,21.55,42.12c-15.21,18.23-29.99,36.81-44.02,56.01
	c-14.21,19.44,9.32,41.78,28.8,36.78c-4.4,5.83-8.85,11.62-13.17,17.52c-7.32,9.99-2.66,25.64,6.48,32.47
	c10.38,7.76,23.44,6.57,33.05-1.97c2.72-2.41,5.5-4.76,8.23-7.16c-4.53,5.31-9.21,10.49-13.7,15.83c-8.74,10.4-10.2,25.4,0,35.6
	c8.16,8.16,21.64,9.52,31.25,3.47c1.29,6.23,4.76,12.1,9.49,15.64c9.72,7.26,20.3,6.26,29.74,0.32
	c-0.74,18.39,19.8,37.37,37.36,24.06c10.33-7.83,20.66-15.66,30.99-23.49c6.93,13.16,25.02,20.45,39.72,7.11
	c22.94-20.81,47.36-39.42,73.47-56.08c13.36-8.53,14.05-23.34,8.09-34.18l25.34-28.04c8.37-9.26,9.99-22.98,1.97-33.05
	c-1.51-1.89-3.45-3.57-5.58-5.05c5.57-5.14,11.13-10.28,16.7-15.42C1102.47-45.48,1085.96-72.95,1065.78-72.21z M991.11-45.39h-0.03
	c-1.51,0.15-3.02,0.22-4.53,0.23c-16.59,0-32.07-8.36-41.16-22.24V8.34c0,30.92-25.06,55.99-55.98,55.99
	c-30.92,0-55.99-25.06-55.99-55.99c0-30.92,25.06-55.98,55.99-55.98c1.17,0,2.31,0.1,3.46,0.18v27.59
	c-1.15-0.14-2.28-0.35-3.46-0.35c-15.78,0-28.57,12.79-28.57,28.57c0,15.78,12.79,28.57,28.57,28.57
	c15.78,0,29.72-12.44,29.72-28.22l0.28-128.65h26.39c2.49,23.67,21.57,42.16,45.31,43.89V-45.39z"/>
</svg>
